<?xml version="1.0" encoding="utf-8"?>
<!-- Generator: Adobe Illustrator 25.4.1, SVG Export Plug-In . SVG Version: 6.00 Build 0)  -->
<svg version="1.1" id="Capa_1" xmlns="http://www.w3.org/2000/svg" xmlns:xlink="http://www.w3.org/1999/xlink" x="0px" y="0px"
	 viewBox="0 0 491.2 621.1" style="enable-background:new 0 0 491.2 621.1;" xml:space="preserve">
<style type="text/css">
	.st0{fill:#A3A3A2;}
	.st1{fill:none;}
	.st2{fill:#F2F2F2;}
	.st3{fill:#DAD7D0;}
	.st4{fill:#EAE5DC;}
	.st5{fill:#7C7C7C;}
	.st6{fill:#494846;}
	.st7{font-family:'Avenir-Book';}
	.st8{font-size:15.4279px;}
	.st9{opacity:0.59;fill:#5CABFF;enable-background:new    ;}
	.st10{fill:#377EFB;}
	.st11{fill:#FFFFFF;}
	.st12{font-family:'Roboto-Bold';}
	.st13{font-size:12px;}
	.st14{fill:none;stroke:#377EFB;stroke-width:2;stroke-miterlimit:10;}
	.st15{fill:#377EFB;stroke:#377EFB;stroke-width:2;stroke-miterlimit:10;}
	.st16{font-family:'Arial-BoldMT';}
</style>
<g id="Edificio_background">
	<polygon class="st0" points="300.9,61.3 300.9,53.5 361.9,199.2 361.9,215.9 357.1,205.1 357.1,193.2 	"/>
	<polyline class="st1" points="300.9,60.3 357.8,193.6 357.8,206.6 	"/>
	<polygon class="st2" points="130.8,565.8 157.9,559.9 491.2,563.8 358.4,621.1 0,592.1 	"/>
	<polygon class="st3" points="186.9,527.4 160.6,528.1 161.1,133.4 163.9,132 163.9,129.9 186.9,118.8 	"/>
	<polygon class="st4" points="166.3,121.2 166.3,128.9 187.3,118.8 187.3,110.6 	"/>
	<polygon class="st0" points="166.7,128.6 166.7,120.4 165.9,120.6 165.9,128.9 	"/>
	<polygon class="st5" points="160.6,558.9 158.7,558.9 158.7,525.6 160.6,525.4 	"/>
	<polygon class="st0" points="187.1,524.5 160.6,525.4 160.6,573.3 187.1,573.1 	"/>
	<polygon class="st5" points="187.1,242.2 165.5,249.4 165.5,215.5 187.3,206.8 	"/>
	<polygon class="st5" points="187.1,282.8 165.5,289.5 165.5,258.5 187.3,250.7 	"/>
	<polygon class="st5" points="187.1,322.6 165.5,328.2 165.5,297.3 187.3,290.8 	"/>
	<polygon class="st5" points="187.1,363.4 165.5,368.2 165.6,336.8 187.4,331.2 	"/>
	<polygon class="st5" points="187.1,402.7 165.5,407.6 165.6,376.1 187.4,371.8 	"/>
	<polygon class="st5" points="187.1,444.8 165.5,446.9 165.6,415.1 187.4,412 	"/>
	<polygon class="st5" points="187.1,485.1 165.5,486.2 165.6,454.5 187.4,452.3 	"/>
	<polygon class="st5" points="187.1,524.2 165.5,525.8 165.6,494.2 187.1,492.7 	"/>
	<polygon class="st5" points="186.9,52.2 277.9,0 300.9,53.5 300.9,88 338.9,172.2 294,188.9 293.9,528.3 279.7,528.9 186.9,530.2 	
		"/>
	<polygon class="st0" points="300.4,144.9 300.4,181.5 303.3,186.4 312.1,184 312.2,167.7 	"/>
	<polygon class="st3" points="341.9,527.7 288.5,528.6 288.5,192.5 341.9,172.6 	"/>
	<polygon class="st5" points="335.6,236.6 288.2,250.9 288.2,212 335.6,196.1 	"/>
	<polygon class="st5" points="187.3,160.6 165.5,170.3 165.5,136.6 187.3,125.7 	"/>
	<polygon class="st5" points="187.1,201.4 165.5,209.9 165.5,175.9 187.3,166.1 	"/>
	<polygon class="st5" points="335.7,284.1 288.3,296.3 288.3,257.7 335.7,243.6 	"/>
	<polygon class="st5" points="335.7,331.6 288.3,341.1 288.3,302.7 335.7,291.1 	"/>
	<polygon class="st5" points="335.7,378.9 288.3,386.3 288.3,347.9 335.7,338.2 	"/>
	<polygon class="st5" points="335.7,426.4 288.3,432 288.3,393.1 335.7,385.7 	"/>
	<polygon class="st5" points="335.7,473.6 288.3,476.9 288.3,438 335.7,432.9 	"/>
	<polygon class="st5" points="335.7,521.2 288.3,522 288.3,483.5 335.7,480.5 	"/>
	<polygon class="st3" points="189.3,80.2 275.3,33.8 275.2,57.7 189.3,101.7 	"/>
	<polygon class="st0" points="275.7,506 189.6,510.2 189.3,99.2 275.4,53.7 	"/>
	<polygon class="st5" points="189.4,101.7 202,118.1 202,130.1 189.4,128.9 	"/>
	<polygon class="st5" points="189.4,56.8 202,73.2 202,74.3 189.4,80.7 	"/>
	<polygon class="st0" points="189.4,56.8 275.7,9.1 275.6,35 202.1,73.6 	"/>
	<polygon class="st5" points="189.4,145.6 202,159.8 202,173.9 189.4,172.7 	"/>
	<polygon class="st5" points="189.4,188.1 202,199.3 202,216.4 189.4,215.2 	"/>
	<polygon class="st5" points="189.4,229.6 202,242.2 202,258.5 189.4,257.3 	"/>
	<polygon class="st5" points="189.4,273 202,282.8 202,291.5 189.4,294.9 	"/>
	<polygon class="st5" points="189.4,314.9 202,324.7 202,335.2 189.4,337.7 	"/>
	<polygon class="st5" points="189.4,358.5 202,365.6 202,377.5 189.4,380 	"/>
	<polygon class="st5" points="189.4,400.7 202,406.6 202,422.1 189.4,424.1 	"/>
	<polygon class="st5" points="189.4,444.1 202,448.1 202,464.9 189.4,466.3 	"/>
	<polygon class="st5" points="189.4,487 202,489.1 202,507.8 189.4,509.2 	"/>
	<polygon class="st5" points="239.8,90.1 239.8,98 232.2,101.9 232.1,80 	"/>
	<polygon class="st5" points="242.6,136.6 242.6,144.2 232.2,148.7 232.1,124.5 	"/>
	<polygon class="st5" points="239.8,177.9 239.8,189.6 232.2,192.8 232.1,169.5 	"/>
	<polygon class="st5" points="242.6,225.6 242.6,235.1 232.2,239.7 232.1,215.4 	"/>
	<polygon class="st5" points="242.6,269.9 242.6,279.5 232.2,282.3 232.1,259.8 	"/>
	<polygon class="st5" points="242.6,314.8 242.6,324.3 232.2,327.3 232.1,304.6 	"/>
	<polygon class="st5" points="242.6,357.5 242.6,370.3 232.2,372.1 232.1,349.4 	"/>
	<polygon class="st5" points="242.6,400.1 242.6,415.7 232.2,417.4 232.1,393.6 	"/>
	<polygon class="st5" points="242.6,443.9 242.6,461.1 232.2,462 232.1,438.9 	"/>
	<polygon class="st5" points="242.6,486.3 242.6,506.2 232.2,507.1 232.1,484.1 	"/>
	<polygon class="st5" points="223.8,534.7 223.8,574.6 219.4,574.6 219.3,535.3 	"/>
	<polygon class="st5" points="171.4,530.8 171.4,573.3 165.6,573.3 165.5,531.4 	"/>
	<polygon class="st5" points="293.5,534.7 293.4,575.2 288.7,575.2 288.6,534.2 	"/>
	<polygon class="st4" points="239.8,90.1 239.8,98.6 275.1,82.1 275.1,71.7 	"/>
	<polygon class="st4" points="239.8,177.9 239.8,189.6 275.1,175.5 275.1,163 	"/>
	<polygon class="st4" points="239.8,133.4 239.8,143.9 275.3,127.9 275.3,116.6 	"/>
	<polygon class="st4" points="250.6,225.6 250.6,231.5 275.3,223.6 275.3,216.9 	"/>
	<polygon class="st4" points="251.7,269.5 251.7,276.5 275.4,269.3 275.4,262.5 	"/>
	<polygon class="st4" points="251.7,313.3 251.7,322.6 275.4,317.3 275.4,307.3 	"/>
	<polygon class="st4" points="251.7,356.6 251.7,368.6 275.6,364 275.6,351.7 	"/>
	<polygon class="st4" points="251.7,399.6 251.7,414.7 275.6,410.8 275.6,395.4 	"/>
	<polygon class="st4" points="251.7,442.9 251.7,460.4 275.6,457.4 275.6,439.9 	"/>
	<polygon class="st4" points="251.7,486 251.7,506.5 275.6,504.7 275.6,484.1 	"/>
	<polygon class="st4" points="203.9,243.1 203.9,247.9 232.3,238 232.2,233.1 	"/>
	<polygon class="st4" points="203.9,284.1 203.9,291.5 232.3,283.1 232.2,275.6 	"/>
	<polygon class="st4" points="203.9,325.1 203.9,334.1 232.3,327.5 232.2,318.3 	"/>
	<polygon class="st4" points="204.8,365.6 204.8,377.3 232.2,372.1 232.1,360 	"/>
	<polygon class="st4" points="204,407 204,421.4 232.2,417.4 232.1,402.5 	"/>
	<polygon class="st4" points="204,448.1 204,466 232.2,462 232.1,444.4 	"/>
	<polygon class="st4" points="204,489.3 204,508.6 232.2,507.1 232.1,487.6 	"/>
	<polygon class="st4" points="168.8,536.2 168.8,573.3 219.3,574.6 219.2,535.3 	"/>
	<polygon class="st4" points="223.8,534.7 223.8,574.6 288.7,575.2 288.6,533.6 	"/>
	<polygon class="st4" points="293.5,534.7 293.4,575.2 336.4,575.2 336.4,533.6 	"/>
	<polygon class="st0" points="275.3,33.8 189.1,80.2 189.1,81.6 275.4,35.2 	"/>
	<polygon class="st0" points="275.3,49.2 189.1,94.1 189.1,95 275.2,50.1 	"/>
	<polygon class="st4" points="275.6,10.7 190.5,58.3 191,58.9 275.5,11.6 	"/>
	<polygon class="st3" points="189.3,124 275.3,81.6 275.2,105.5 189.3,145.6 	"/>
	<polygon class="st0" points="275.3,80.7 189.1,123 189.1,124.5 275.4,82.1 	"/>
	<polygon class="st0" points="275.3,96.1 189.1,137 189.1,138.5 275.2,97.6 	"/>
	<polygon class="st3" points="189.3,166.5 275.3,127.9 275.2,151.9 189.3,188.1 	"/>
	<polygon class="st0" points="275.3,127 189.1,165.6 189.1,167 275.4,128.4 	"/>
	<polygon class="st0" points="275.3,142.4 189.1,179.5 189.1,181 275.2,143.9 	"/>
	<polygon class="st3" points="189.3,209.8 275.3,176.2 275.2,200.1 189.3,230.7 	"/>
	<polygon class="st0" points="275.3,175.3 189.1,208.9 189.1,210.3 275.4,176.7 	"/>
	<polygon class="st0" points="275.3,190.7 189.1,222.1 189.1,223.6 275.2,192.2 	"/>
	<polygon class="st3" points="189.3,252.8 275.3,223.6 275.2,246.2 189.3,273.6 	"/>
	<polygon class="st0" points="275.3,222.7 189.1,251.9 189.1,253.3 275.4,224.1 	"/>
	<polygon class="st0" points="275.3,237.4 189.1,265.6 189.1,267 275.2,238.9 	"/>
	<polygon class="st3" points="189.6,295.4 275.6,270.2 275.4,293.5 189.6,316 	"/>
	<polygon class="st3" points="189.5,337.9 275.5,316.9 275.3,340.1 189.5,358.5 	"/>
	<polygon class="st3" points="189.4,380 275.6,364.9 275.5,387.1 189.4,401.3 	"/>
	<polygon class="st0" points="275.4,379.1 189,394.4 189,395.4 275.4,380.1 	"/>
	<polygon class="st0" points="275.4,363.9 189,379.3 189,380.3 275.4,364.9 	"/>
	<polygon class="st0" points="275.4,332.1 189,351.7 189,352.7 275.4,333.1 	"/>
	<polygon class="st0" points="275.4,284.6 189,308.7 189,310.2 275.4,286.1 	"/>
	<polygon class="st0" points="275.4,316.4 189,337.2 189,338.2 275.4,317.4 	"/>
	<polygon class="st0" points="275.4,269 189,294.4 189,295.9 275.4,270.5 	"/>
	<polygon class="st3" points="189.4,424.1 275.6,410.6 275.6,434 189.4,444.4 	"/>
	<polygon class="st0" points="275.5,426.2 189.3,437.5 189.3,438.4 275.6,427.2 	"/>
	<polygon class="st0" points="275.5,410.6 189.3,423.1 189.3,424.1 275.6,411.6 	"/>
	<polygon class="st3" points="189.3,466.7 275.6,457 275.5,481 189.3,487 	"/>
	<polygon class="st0" points="275.6,456.6 189.3,466 189.3,467 275.6,457.7 	"/>
	<polygon class="st0" points="275.5,473.9 189.3,480.1 189.3,481.3 275.6,474.9 	"/>
	<polygon class="st3" points="189.4,509.3 275.6,504.7 275.6,524.7 189.4,526.3 	"/>
	<polygon class="st0" points="275.6,504.3 189.3,508.6 189.3,509.6 275.6,505.3 	"/>
	<polygon class="st0" points="275.5,521 186.6,523.3 186.6,530.8 275.6,528.9 	"/>
	<polygon class="st4" points="334.8,221.5 334.8,204.5 293.3,219.1 293.3,235.4 	"/>
	<polygon class="st4" points="336.4,173.1 338.9,172.2 300.9,88 300.9,95.8 	"/>
	<polygon class="st0" points="338.9,172.2 339.4,172 300.9,86.4 300.9,88 	"/>
	<polygon class="st4" points="302.8,185.8 306.2,184.6 300.4,174.1 300.4,181.5 	"/>
	<polygon class="st4" points="309.2,183.4 309.2,169.6 305,161.3 305,177.9 308.2,183.8 	"/>
	<polygon class="st4" points="318.4,180 312.2,167.7 312.2,182.4 	"/>
	<polygon class="st4" points="334.8,237.2 334.8,224.6 292.3,238.2 292.3,249.5 	"/>
	<polygon class="st4" points="335.8,189.2 335.8,174.9 288.6,192.8 288.6,205.6 	"/>
	<polygon class="st4" points="334.8,268.6 334.8,250.9 293.3,263.6 293.3,280.6 	"/>
	<polygon class="st4" points="335.8,284.1 335.8,271.2 292.4,283 292.4,295.2 	"/>
	<polygon class="st4" points="334.8,315.8 334.8,298 293.3,308.3 293.3,325.1 	"/>
	<polygon class="st4" points="335.8,332.1 335.8,318.3 292.4,328.1 292.4,340.3 	"/>
	<polygon class="st4" points="334.8,362.4 334.8,345.3 292.4,353.5 292.4,371.1 	"/>
	<polygon class="st4" points="335.7,378.9 335.7,364.9 292.4,373.1 292.4,385.7 	"/>
	<polygon class="st4" points="334.8,409.8 334.8,393.6 293.5,399.6 293.5,415.5 	"/>
	<polygon class="st4" points="335.7,426.3 335.7,412.4 292.5,418.1 292.5,431.8 	"/>
	<polygon class="st4" points="334.8,456.7 334.8,439.2 293.5,444 293.5,459.6 	"/>
	<polygon class="st4" points="335.8,473.9 335.8,458.6 292.5,462 292.5,476.6 	"/>
	<polygon class="st4" points="334.8,503.7 334.8,486.4 292.5,488.8 292.5,506.5 	"/>
	<polygon class="st4" points="335.7,521.2 335.7,505.8 292.5,508.6 292.5,522 	"/>
	<polygon class="st4" points="186.8,149.1 186.9,134.7 168.5,143.6 168.5,157.6 	"/>
	<polygon class="st4" points="186.8,160.8 186.8,151.6 166.6,160.8 166.6,169.8 	"/>
	<polygon class="st4" points="186.8,188.8 186.9,174.7 168.5,182.7 168.5,196.6 	"/>
	<polygon class="st4" points="186.8,201.4 186.8,191.6 166.6,200 166.6,209.9 	"/>
	<polygon class="st4" points="186.8,229.6 186.9,214.4 168.5,221.9 168.5,236.1 	"/>
	<polygon class="st4" points="186.8,241.6 186.8,231.6 166.6,238.9 166.6,249.1 	"/>
	<polygon class="st4" points="186.8,269.5 186.9,252.2 167.8,259 167.8,276 	"/>
	<polygon class="st4" points="186.8,282.5 186.8,271.7 166.6,278.3 166.6,288.6 	"/>
	<polygon class="st0" points="186.8,160.8 165.5,170.3 165.5,170.9 186.8,161.5 	"/>
	<polygon class="st0" points="186.9,109.9 165.9,120.6 165.9,121.5 186.9,111 	"/>
	<polygon class="st0" points="186.9,201.2 165.5,209.9 165.5,210.4 186.9,202 	"/>
	<polygon class="st0" points="186.8,241.6 165.5,249.4 165.5,250 186.8,242.3 	"/>
	<polygon class="st0" points="186.8,282.1 165.5,288.9 165.5,289.5 186.8,282.8 	"/>
	<polygon class="st4" points="186.9,309.7 186.9,294.2 167.8,300.1 167.8,315.1 	"/>
	<polygon class="st4" points="186.9,349.7 186.9,335.1 167.8,339.8 167.8,354.1 	"/>
	<polygon class="st4" points="186.9,363.5 186.9,351.9 166.6,356.6 166.6,367.8 	"/>
	<polygon class="st4" points="186.8,389.7 186.9,374.8 167.8,378.7 167.8,393.5 	"/>
	<polygon class="st4" points="186.9,404 186.9,391.5 166.6,395.7 166.6,407.4 	"/>
	<polygon class="st4" points="186.9,430.3 186.9,415.1 167.8,418 167.8,432.5 	"/>
	<polygon class="st4" points="186.9,444.4 186.9,432.3 166.6,434.5 166.6,446.8 	"/>
	<polygon class="st4" points="186.8,469.9 186.9,455.2 167.8,457 167.8,471.5 	"/>
	<polygon class="st4" points="186.9,485 186.9,471.9 166.6,473.9 166.6,486.5 	"/>
	<polygon class="st4" points="186.8,510.4 186.9,495.3 167.8,496.8 167.8,511.3 	"/>
	<polygon class="st4" points="186.8,524.5 186.9,512 166.6,513.1 166.6,525.3 	"/>
	<polygon class="st4" points="186.9,322.5 186.9,311.9 166.6,317.3 166.6,327.9 	"/>
	<polygon class="st5" points="186.9,430.3 166.6,432.6 166.6,434.5 186.9,432.3 	"/>
	<polygon class="st0" points="186.9,322.4 165.5,328.2 165.5,328.8 186.9,323.1 	"/>
	<polygon class="st0" points="186.9,363.2 165.5,367.6 165.5,368.2 186.9,363.9 	"/>
	<polygon class="st0" points="186.9,403.6 165.5,407.3 165.5,407.9 186.9,404.3 	"/>
	<polygon class="st0" points="186.9,444.1 165.5,446.6 165.5,447.2 186.9,444.8 	"/>
	<polygon class="st0" points="186.9,484.5 165.5,486 165.5,486.6 186.9,485.2 	"/>
	<polygon class="st0" points="186.8,524.5 165.5,525.2 165.5,525.8 186.8,525.2 	"/>
	<polygon class="st0" points="288.6,483.4 292,486.4 335.7,484.1 335.7,480.5 	"/>
	<polygon class="st0" points="288.6,438 292.5,440.9 335.7,437 335.7,432.9 	"/>
	<polygon class="st0" points="288.6,393.1 292.5,396 335.7,389.7 335.7,385.6 	"/>
	<polygon class="st0" points="288.6,347.8 292.5,350.8 335.7,342.2 335.7,338.2 	"/>
	<polygon class="st0" points="288.6,302.6 292.5,305.4 335.7,295.1 335.7,291.1 	"/>
	<polygon class="st0" points="288.6,257.6 292.5,260.3 335.7,247.8 335.7,243.6 	"/>
	<polygon class="st0" points="288.6,211.9 292.5,215.6 335.7,200.9 335.7,196.1 	"/>
	<polygon class="st0" points="300.9,103.3 300.9,138.9 311.9,160.6 311.9,127 	"/>
	<polygon class="st0" points="186.7,129.9 186.7,126 165.5,136.7 165.5,140.2 	"/>
	<polygon class="st0" points="186.8,170.3 186.8,166.4 165.5,175.9 165.5,179.7 	"/>
	<polygon class="st0" points="186.8,210.4 186.8,207 165.5,215.4 165.5,219 	"/>
	<polygon class="st0" points="186.9,251.1 186.9,247.5 165.5,255 165.5,258.5 	"/>
	<polygon class="st0" points="186.9,291.1 186.9,287.8 165.5,294.2 165.5,297.4 	"/>
	<polygon class="st0" points="186.9,331.4 186.8,328.2 165.5,333.9 165.5,337 	"/>
	<polygon class="st0" points="186.9,372.2 186.9,368.6 165.5,373.1 165.5,376.4 	"/>
	<polygon class="st0" points="186.9,412.3 186.9,409.2 165.5,412.8 165.5,415.5 	"/>
	<polygon class="st0" points="186.9,452.8 186.9,449.8 165.5,451.9 165.5,454.6 	"/>
	<polygon class="st0" points="186.9,493 186.9,490 165.5,491.8 165.5,494.5 	"/>
	<polygon class="st5" points="335.8,534.1 165.5,536.2 165.5,530.9 335.8,527.7 	"/>
	<polygon class="st0" points="125.2,576.5 165.1,572.7 165.1,558.1 122.5,559.9 	"/>
	<polygon class="st5" points="316.9,583.3 342,580 341.9,560.6 317.1,562.8 	"/>
	<polygon class="st0" points="335.8,236.2 288.6,250.6 288.6,251.2 335.8,236.9 	"/>
	<polygon class="st0" points="335.8,188.6 288.6,205.6 288.6,206.2 335.8,189.4 	"/>
	<polygon class="st0" points="335.8,284.2 288.6,296.2 288.6,296.8 335.8,285 	"/>
	<polygon class="st0" points="335.8,378.8 288.6,386.3 288.6,386.9 335.8,379.5 	"/>
	<polygon class="st0" points="335.8,426.2 288.6,432 288.6,432.6 335.8,426.9 	"/>
	<polygon class="st0" points="335.8,473.9 288.6,476.8 288.6,477.4 335.8,474.6 	"/>
	<polygon class="st0" points="335.8,521 288.6,522 288.6,522.6 335.8,521.8 	"/>
	<polygon class="st0" points="335.8,331.7 288.6,341 288.6,341.7 335.8,332.5 	"/>
	<polygon class="st0" points="341.9,171.1 288.6,191.2 288.6,192.8 342,172.6 	"/>
	<polygon class="st4" points="303.6,134 303.6,118.2 300.9,111.5 300.9,128.4 	"/>
	<polygon class="st4" points="309.3,156.1 309.3,149.7 300.9,132.3 300.9,138.9 	"/>
	<polygon class="st4" points="309.3,144.9 309.3,129.4 305,119.9 305,136.6 	"/>
	<polygon class="st4" points="321,179 332.4,174.7 332.4,170.5 311.9,127 311.9,161.3 	"/>
	<polygon class="st4" points="303.6,175.3 303.6,159.5 300.4,153.8 300.4,169.7 	"/>
	<polygon class="st5" points="300.9,70 301.8,69.3 303,71.7 300.9,72.9 300.9,80.7 305.8,78.3 308.2,84.1 301.2,87.3 302.5,90 
		309.3,86.8 311.4,91.8 304.7,95 305.9,97.6 312.6,94.4 314.8,99.2 308.1,102.6 309.1,104.8 315.9,101.7 318,106.5 311.3,109.5 
		312.4,112.1 319.1,109.1 321.1,113.6 314.5,116.6 315.5,118.9 322.1,115.9 323.2,118.4 316.5,121.2 319,126.7 325.4,124.1 
		327.3,128.1 320.9,131 322,133.2 328.4,130.6 330.1,134.4 323.7,137 324.6,139.2 330.9,136.6 332.4,140.2 326.2,142.8 327.2,144.9 
		333.5,142.6 335.1,145.9 328.8,148.4 329.8,150.6 335.8,148.2 337.5,151.8 331.2,153.8 332.3,156.1 338.4,153.8 338.9,155 
		332.9,157.4 335.1,162.4 341.3,160.1 342.7,163.5 336.6,165.7 337.5,167.7 343.5,165.7 344.7,168.4 338.9,170.7 339.4,172 
		341.9,171.1 342.2,171.6 345.6,170.5 346.9,173.1 343.5,174.5 344.4,176.4 347.9,175.3 348.9,177.9 345.6,179 346.4,181 
		349.8,179.9 350.1,180.6 346.6,181.7 348.8,186.5 352.1,185.4 353.4,188.2 350.1,189.4 350.9,191.3 354.1,190.3 355.3,192.8 
		352.1,193.9 352.9,195.7 356.1,194.6 356.1,197.4 354,198.2 354.8,200 356.1,199.5 356.1,200.3 355.1,200.7 357.8,206.6 
		357.8,193.6 300.9,60.3 	"/>
	<polygon class="st4" points="341.9,171.1 396.2,292.3 396.2,573.3 342,580 	"/>
	<rect x="335.8" y="527.7" class="st0" width="6.1" height="32.9"/>
	<polygon class="st0" points="316.9,583.3 309.8,582.9 310,562.3 317.1,562.8 	"/>
	<polygon class="st5" points="125.2,576.5 122.1,576.4 122.3,559.4 125.4,559.9 	"/>
	<polygon class="st3" points="310,562.3 335.8,560.6 341.9,560.6 317.1,562.8 	"/>
	<polygon class="st3" points="122.3,559.6 158.7,558.1 160.6,558.1 160.6,558.4 125.4,559.9 	"/>
	<text transform="matrix(0.6217 4.010906e-02 0.2707 0.9627 162.3801 596.6799)" class="st6 st7 st8">A</text>
	<text transform="matrix(0.6217 4.010906e-02 0.2707 0.9627 168.4807 597.0735)" class="st6 st7 st8">V</text>
	<text transform="matrix(0.6217 4.010906e-02 0.2707 0.9627 173.1 597.3716)" class="st6 st7 st8">. 8 DE OCTUBRE</text>
</g>
<g id="Planta_Baja">
	<polygon class="st9" points="158.7,559 158.7,526.5 341.9,521.9 396.1,521.9 396.1,574.4 317.3,584.2 309.6,583.6 309.6,576 
		251.9,576 160.5,574.2 125.2,577.3 121.9,577.3 122.1,560.5 	"/>
	<rect id="Rectángulo_41" x="45.4" y="534.1" class="st10" width="91.1" height="21.1"/>
	<text transform="matrix(1 0 0 1 49.6576 548.7031)" class="st11 st12 st13">P</text>
	<text transform="matrix(1 0 0 1 57.2278 548.7031)" class="st11 st12 st13">L</text>
	<text transform="matrix(1 0 0 1 62.797 548.7031)" class="st11 st12 st13">AN</text>
	<text transform="matrix(1 0 0 1 80.1776 548.7031)" class="st11 st12 st13">T</text>
	<text transform="matrix(1 0 0 1 86.8777 548.7031)" class="st11 st12 st13">A BAJA</text>
	<g id="Grupo_1808">
		<g id="Grupo_1807">
			<line id="Línea_140144" class="st14" x1="177.4" y1="544.9" x2="133.3" y2="544.9"/>
			<g id="Grupo_1806">
				<circle id="Elipse_90" class="st15" cx="177.3" cy="544.9" r="1.7"/>
			</g>
		</g>
	</g>
</g>
<g id="Nivel_1">
	<polygon class="st9" points="160.5,526.3 160.5,492.8 186.9,490.7 186.9,488.1 189.3,488.1 275.3,482.1 288.4,482.1 288.4,483.9 
		341.6,480.7 396.1,480.7 396.1,521.9 	"/>
	<rect id="Rectángulo_41-2" x="77.7" y="495" class="st10" width="58.8" height="21.1"/>
	<text transform="matrix(1 0 0 1 88.6806 509.5732)" class="st11 st12 st13">NIVEL 1</text>
	<g id="Grupo_1808-2">
		<g id="Grupo_1807-2">
			<line id="Línea_140144-2" class="st14" x1="177.4" y1="505.8" x2="133.3" y2="505.8"/>
			<g id="Grupo_1806-2">
				<circle id="Elipse_90-2" class="st15" cx="177.3" cy="505.8" r="1.7"/>
			</g>
		</g>
	</g>
</g>
<g id="Nivel_2_al_5">
	<polygon class="st9" points="160.5,492.8 160.5,335.3 186.9,329.1 186.9,317.3 275.1,294.1 288.4,299.7 288.4,303.6 341.2,290.6 
		395.9,351 395.9,480.7 341.6,480.7 288.4,483.9 288.4,482.1 275.3,482.1 186.9,488.1 186.9,490.7 	"/>
	<rect id="Rectángulo_41-3" x="55.9" y="392.8" class="st10" width="80.6" height="21.1"/>
	<text transform="matrix(1 0 0 1 60.6606 407.4229)" class="st11 st16 st13">NIVEL 2 AL 5</text>
	<g id="Grupo_1808-3">
		<g id="Grupo_1807-3">
			<line id="Línea_140144-3" class="st14" x1="177.4" y1="403.6" x2="133.3" y2="403.6"/>
			<g id="Grupo_1806-3">
				<circle id="Elipse_90-3" class="st15" cx="177.3" cy="403.6" r="1.7"/>
			</g>
		</g>
	</g>
</g>
<g id="Nivel_6">
	<path class="st9" d="M160.5,335.3v-39l26.5-7.6l-0.3-13.3l88.7-28.2l13.1,4.4v7l47.3-14l5.5-1.6l54.9,73l-0.3,35l-54.7-60.5
		l-52.8,13v-4.2l-13.2-5.2l-88.4,23V329L160.5,335.3z"/>
	<rect id="Rectángulo_41-4" x="77.7" y="299.9" class="st10" width="58.8" height="21.1"/>
	<text transform="matrix(1 0 0 1 87.6806 314.4429)" class="st11 st16 st13">NIVEL 6</text>
	<g id="Grupo_1808-4">
		<g id="Grupo_1807-4">
			<line id="Línea_140144-4" class="st14" x1="177.4" y1="310.7" x2="133.3" y2="310.7"/>
			<g id="Grupo_1806-4">
				<circle id="Elipse_90-4" class="st15" cx="177.3" cy="310.7" r="1.7"/>
			</g>
		</g>
	</g>
</g>
<g id="Nivel_7">
	<path class="st9" d="M160.5,296.3c0-0.8,0-39.2,0-39.2l26.5-8.8l-0.3-15.8l88.7-31.5l13.1,5.1l-0.2,6.8l47.5-15.8l5.5-1.9
		l54.9,98.1V316l-54.9-73l-52.8,15.6v-7l-13.2-4.4l-88.4,28.2v13.3L160.5,296.3z"/>
	<rect id="Rectángulo_41-5" x="77.7" y="257.5" class="st10" width="58.8" height="21.1"/>
	<text transform="matrix(1 0 0 1 85.6794 272.0732)" class="st11 st16 st13">NIVEL 7</text>
	<g id="Grupo_1808-5">
		<g id="Grupo_1807-5">
			<line id="Línea_140144-5" class="st14" x1="177.4" y1="268.3" x2="133.3" y2="268.3"/>
			<g id="Grupo_1806-5">
				<circle id="Elipse_90-5" class="st15" cx="177.3" cy="268.3" r="1.7"/>
			</g>
		</g>
	</g>
</g>
<g id="Nivel_8">
	<path class="st9" d="M341.9,172l54.3,120.5v0.8l-54.9-98.1l-52.8,17.6v-6.6l-13.2-4.8l-88.4,31.2v15.8l-26.3,8.8
		c0-0.8,0-39.5,0-39.5L187,208l-0.3-18.3l88.7-36.9l27.2,33.2L341.9,172z"/>
	<rect id="Rectángulo_41-6" x="77.7" y="219.1" class="st10" width="58.8" height="21.1"/>
	<text transform="matrix(1 0 0 1 87.6806 233.7031)" class="st11 st12 st13">NIVEL 8</text>
	<g id="Grupo_1808-6">
		<g id="Grupo_1807-6">
			<line id="Línea_140144-6" class="st14" x1="177.4" y1="229.9" x2="133.3" y2="229.9"/>
			<g id="Grupo_1806-6">
				<circle id="Elipse_90-6" class="st15" cx="177.3" cy="229.9" r="1.7"/>
			</g>
		</g>
	</g>
</g>
<g id="Nivel_9_y_10">
	<polygon class="st9" points="160.7,134.2 160.5,217.6 186.9,208 186.6,189.7 275.3,152.7 302.5,186 339.4,172.9 300.7,87.4 
		275.6,54.4 186.6,101.5 186.6,110.9 166.1,121.4 166.1,129.7 163.9,130.6 163.9,132.5 	"/>
	<rect id="Rectángulo_41-7" x="55.1" y="154.3" class="st10" width="81.3" height="21.1"/>
	<text transform="matrix(1 0 0 1 61.6606 168.9028)" class="st11 st12 st13">NIVEL 9 Y 10</text>
	<g id="Grupo_1808-7">
		<g id="Grupo_1807-7">
			<line id="Línea_140144-7" class="st14" x1="177.4" y1="165.1" x2="133.3" y2="165.1"/>
			<g id="Grupo_1806-7">
				<circle id="Elipse_90-7" class="st15" cx="177.3" cy="165.1" r="1.7"/>
			</g>
		</g>
	</g>
</g>
<g id="Nivel_11">
	<path class="st9" d="M186.8,53l90.8-52c0,0,17.6,39.6,23.1,53.2s61,146,61,146v15.7L341.9,172l-2.5,0.9l-38.7-85.6l-25.1-33
		l-88.9,47.1L186.8,53z"/>
	<rect id="Rectángulo_41-8" x="77.7" y="65.7" class="st10" width="58.8" height="21.1"/>
	<text transform="matrix(1 0 0 1 82.6706 80.333)" class="st11 st12 st13">NIVEL 11</text>
	<g id="Grupo_1808-8">
		<g id="Grupo_1807-8">
			<line id="Línea_140144-8" class="st14" x1="197.4" y1="76.6" x2="133.3" y2="76.6"/>
			<g id="Grupo_1806-8">
				<circle id="Elipse_90-8" class="st15" cx="197.3" cy="76.6" r="1.7"/>
			</g>
		</g>
	</g>
</g>
</svg>
