<svg xmlns="http://www.w3.org/2000/svg" viewBox="0 0 152.37 152.37"><defs><style>.cls-1{fill:none;stroke:#2621a8;stroke-width:2px;}.cls-1,.cls-2{stroke-miterlimit:10;}.cls-2{fill:#3477f5;stroke:#fff;stroke-width:1.5px;}</style></defs><g id="Capa_2" data-name="Capa 2"><g id="Capa_1-2" data-name="Capa 1"><circle class="cls-1" cx="76.19" cy="76.19" r="75.19"/><g id="Grupo_1178" data-name="Grupo 1178"><path id="Trazado_1377" data-name="Trazado 1377" class="cls-2" d="M59.51,76v5.62c0,4.07,0,8.13,0,12.2a1.18,1.18,0,0,0,.77,1.26c4.17,2,8.31,4.15,12.46,6.23a9.35,9.35,0,0,1,5.53,9V115a3.16,3.16,0,0,1-2.8,3.47,2.66,2.66,0,0,1-.63,0c-2.9,0-5.79,0-8.69,0a4.85,4.85,0,0,1-2-.48c-8.09-4-16.16-8.07-24.24-12.09a3.6,3.6,0,0,1-2.21-3.55q0-16.74,0-33.49A12.48,12.48,0,0,1,55.25,57.06c3.45,1.42,6.86,3,10.31,4.4a6.33,6.33,0,0,0,2.15.47c4.09.13,8.19.18,12.29.29a7.8,7.8,0,0,1,5.09,13.54A7.43,7.43,0,0,1,80,77.82c-4.78,0-9.57.11-14.35,0a18.35,18.35,0,0,1-4.29-1.19C60.78,76.43,60.23,76.22,59.51,76ZM43.94,98.16c.24-.08.42-.13.6-.2,2.65-1.06,5.3-2.14,8-3.16a1.08,1.08,0,0,0,.78-1.23c0-3.38,0-6.76,0-10.14,0-3.91,0-7.81,0-11.71a3.09,3.09,0,0,1,2.94-3.25,3,3,0,0,1,1.26.2,21,21,0,0,1,2.31.79,26.68,26.68,0,0,0,12.9,2.16c2.3-.15,4.62,0,6.92-.07a2.13,2.13,0,0,0,1.51-.81,1.52,1.52,0,0,0,0-1.49,2.52,2.52,0,0,0-1.65-.76c-4.32-.15-8.64-.2-13-.35a7.4,7.4,0,0,1-2.53-.58c-3.62-1.51-7.21-3.1-10.84-4.61a8.49,8.49,0,0,0-2.61-.7A6.17,6.17,0,0,0,43.92,68c0,.16,0,.31,0,.47q0,14.54,0,29.07c0,.19,0,.37,0,.63ZM72,112.2c0-.79,0-1.46,0-2.14a3.2,3.2,0,0,0-1.92-3.12l-13.23-6.62a1.39,1.39,0,0,0-.91-.17c-2.46.95-4.9,1.95-7.45,3a4,4,0,0,0,.42.3L66.06,112a1.75,1.75,0,0,0,.74.21c1.68,0,3.37,0,5.2,0Z"/><path id="Trazado_1378" data-name="Trazado 1378" class="cls-2" d="M84.5,96.58c-3.22,0-6.27,0-9.33,0a3.11,3.11,0,0,1-3-2A2.91,2.91,0,0,1,73,91.21a7,7,0,0,1,1.92-.85,2.15,2.15,0,0,1,.67,0H109a3.2,3.2,0,0,1,3.61,2.73,3.53,3.53,0,0,1,0,.86v21a3.18,3.18,0,0,1-2.75,3.55,3.14,3.14,0,0,1-.81,0h-21a3.16,3.16,0,0,1-3.56-2.72,2.75,2.75,0,0,1,0-.81V96.58Zm6.29,15.56h15.5V96.63H90.79Z"/><path id="Trazado_1379" data-name="Trazado 1379" class="cls-2" d="M87.56,87.22H75.26a3.06,3.06,0,0,1-2.92-1.76,2.91,2.91,0,0,1,.22-3.14A3.23,3.23,0,0,1,75.42,81C82.61,81,89.8,81,97,81a1.17,1.17,0,0,0,1.32-.91q4-10.81,8.08-21.62A3.28,3.28,0,0,1,110,56a3.15,3.15,0,0,1,2.56,3.65,2.79,2.79,0,0,1-.23.76c-1.47,4-3,8-4.47,12l-4.62,12.31a3.29,3.29,0,0,1-3.68,2.53Z"/><path id="Trazado_1380" data-name="Trazado 1380" class="cls-2" d="M40.77,41.89A10,10,0,0,1,43.23,34a9.34,9.34,0,0,1,16.26,6.13A30.35,30.35,0,0,1,59.32,45a9.26,9.26,0,0,1-9.88,7.79,9.41,9.41,0,0,1-8.67-9.17C40.76,43.06,40.77,42.48,40.77,41.89Zm6.25,0c0,.58,0,1.17,0,1.75a3.14,3.14,0,0,0,3.09,2.92,3.1,3.1,0,0,0,3.12-2.89c.06-1.2.06-2.4,0-3.61a3.11,3.11,0,0,0-6.21.07c0,.59,0,1.17,0,1.76Z"/></g></g></g></svg>