<svg xmlns="http://www.w3.org/2000/svg" viewBox="0 0 152.37 152.37"><defs><style>.cls-1{fill:#3477f8;stroke:#fff;stroke-width:0.25px;}.cls-1,.cls-2{stroke-miterlimit:10;}.cls-2{fill:none;stroke:#2621a8;stroke-width:2px;}</style></defs><g id="Capa_2" data-name="Capa 2"><g id="Capa_1-2" data-name="Capa 1"><path class="cls-1" d="M113.85,67.61,103.49,43.37a5.66,5.66,0,0,0-5.21-3.44H54.09a5.67,5.67,0,0,0-5.21,3.44L38.53,67.61a13.25,13.25,0,0,0-7.73,12V94.77a5.69,5.69,0,0,0,5.67,5.68h1.9v9.45A5.68,5.68,0,0,0,44,115.57h7.57a5.69,5.69,0,0,0,5.68-5.67v-9.45H95.1v9.45a5.69,5.69,0,0,0,5.68,5.67h7.57A5.68,5.68,0,0,0,114,109.9v-9.45h1.88a5.7,5.7,0,0,0,5.68-5.68V79.65A13.26,13.26,0,0,0,113.85,67.61ZM52.36,44.86a1.89,1.89,0,0,1,1.73-1.15H98.28A1.9,1.9,0,0,1,100,44.84l9.22,21.58-.89,0H44c-.3,0-.6,0-.89,0Zm1.13,65a1.9,1.9,0,0,1-1.9,1.89H44a1.9,1.9,0,0,1-1.9-1.89v-9.45H53.49Zm54.84,1.89h-7.57a1.9,1.9,0,0,1-1.9-1.89v-9.45h11.35v9.45h0A1.9,1.9,0,0,1,108.33,111.79Zm7.57-15.12H36.47a1.9,1.9,0,0,1-1.9-1.9V79.65A9.46,9.46,0,0,1,44,70.2h64.31a9.46,9.46,0,0,1,9.45,9.45V94.77h0A1.9,1.9,0,0,1,115.9,96.67Z"/><path class="cls-1" d="M47.82,74a9.46,9.46,0,1,0,9.45,9.45A9.46,9.46,0,0,0,47.82,74Zm0,15.13a5.68,5.68,0,1,1,5.67-5.68A5.7,5.7,0,0,1,47.82,89.1Z"/><path class="cls-1" d="M104.55,74A9.46,9.46,0,1,0,114,83.42,9.46,9.46,0,0,0,104.55,74Zm0,15.13a5.68,5.68,0,1,1,5.68-5.68A5.69,5.69,0,0,1,104.55,89.1Z"/><path class="cls-1" d="M89.43,85.32H62.94a1.9,1.9,0,1,0,0,3.8H89.41a1.9,1.9,0,0,0,0-3.8Z"/><path class="cls-1" d="M89.43,77.75H62.94a1.9,1.9,0,0,0,0,3.8H89.41a1.91,1.91,0,0,0,1.9-1.9A1.88,1.88,0,0,0,89.43,77.75Z"/><circle class="cls-2" cx="76.19" cy="76.19" r="75.19"/></g></g></svg>