<svg xmlns="http://www.w3.org/2000/svg" viewBox="0 0 152.37 152.37"><defs><style>.cls-1{fill:none;stroke:#2621a8;stroke-width:2px;}.cls-1,.cls-2{stroke-miterlimit:10;}.cls-2{fill:#3477f8;stroke:#fff;stroke-width:0.25px;}</style></defs><g id="Capa_2" data-name="Capa 2"><g id="Capa_1-2" data-name="Capa 1"><circle class="cls-1" cx="76.19" cy="76.19" r="75.19"/><path class="cls-2" d="M118.29,62.59h-1.62V56.13a4.86,4.86,0,0,0-4.85-4.86,5,5,0,0,0-1.62.28V44.8A4.86,4.86,0,0,0,105.35,40h-3.23a4.88,4.88,0,0,0-4.86,4.85V62.59H92.13a4.84,4.84,0,0,0-6.18-3l-.18.06a4.84,4.84,0,0,0-6-3.4,3.5,3.5,0,0,0-.52.17,4.85,4.85,0,0,0-6-3.41,4.77,4.77,0,0,0-2,1.07,4.85,4.85,0,0,0-8.09,3.61v1.62H61.68a4.86,4.86,0,0,0-4.57,3.23H52V44.8A4.87,4.87,0,0,0,47.13,40H43.89A4.86,4.86,0,0,0,39,44.8v6.75a4.85,4.85,0,0,0-6.19,3,4.78,4.78,0,0,0-.28,1.63v6.46H31a4.86,4.86,0,0,0-4.85,4.86v3.23A4.85,4.85,0,0,0,31,75.53h1.62V82a4.86,4.86,0,0,0,4.85,4.86A5,5,0,0,0,39,86.58v6.74a4.86,4.86,0,0,0,4.85,4.86h3.24A4.88,4.88,0,0,0,52,93.32V75.53h4.85v4.86a1.56,1.56,0,0,0,.27.89l6.2,9.3V116a1.61,1.61,0,0,0,1.62,1.61H87.56A1.62,1.62,0,0,0,89.18,116V90.35l3.15-9.45a1.81,1.81,0,0,0,.08-.51V75.53h4.85V93.32a4.88,4.88,0,0,0,4.86,4.86h3.23a4.86,4.86,0,0,0,4.85-4.86V86.58a4.85,4.85,0,0,0,6.19-3,4.68,4.68,0,0,0,.28-1.62V75.53h1.62a4.85,4.85,0,0,0,4.85-4.85V67.45A4.86,4.86,0,0,0,118.29,62.59Zm-30.73,0a1.63,1.63,0,0,1,1.62,1.62v6.47a1.62,1.62,0,1,1-3.24,0V64.21A1.63,1.63,0,0,1,87.56,62.59Zm-6.47-3.23A1.62,1.62,0,0,1,82.71,61v9.7a1.62,1.62,0,1,1-3.24,0V61A1.62,1.62,0,0,1,81.09,59.36Zm-6.47-3.23a1.62,1.62,0,0,1,1.62,1.61V70.68a1.62,1.62,0,1,1-3.24,0V57.74A1.62,1.62,0,0,1,74.62,56.13ZM69.77,70.68a1.62,1.62,0,1,1-3.24,0V69.06h1.62a5,5,0,0,0,1.62-.27ZM66.53,57.74a1.62,1.62,0,0,1,3.24,0v1.62H66.53ZM31,72.3a1.63,1.63,0,0,1-1.62-1.62V67.45A1.63,1.63,0,0,1,31,65.83h1.62V72.3Zm6.47,11.32A1.63,1.63,0,0,1,35.8,82V56.13a1.62,1.62,0,1,1,3.24,0V82A1.62,1.62,0,0,1,37.42,83.62Zm11.32,9.7a1.61,1.61,0,0,1-1.61,1.62H43.89a1.62,1.62,0,0,1-1.62-1.62V44.8a1.62,1.62,0,0,1,1.62-1.61h3.24a1.61,1.61,0,0,1,1.61,1.61ZM52,72.3V65.83h4.85V72.3Zm37.2,7.82L86,89.58a1.48,1.48,0,0,0-.09.51v24.26H66.53V94.94h4.86a1.62,1.62,0,0,0,0-3.23H66.53V90.09a1.61,1.61,0,0,0-.27-.9l-6.2-9.29V64.21a1.64,1.64,0,0,1,1.62-1.62h8.09v1.62a1.62,1.62,0,0,1-1.62,1.62H64.92a1.61,1.61,0,0,0-1.62,1.62v6.47a1.61,1.61,0,0,0,1.62,1.61A8.1,8.1,0,0,1,73,83.62a1.62,1.62,0,1,0,3.24,0,11.32,11.32,0,0,0-3.41-8.09H89.18Zm2.95-7.82a4.72,4.72,0,0,0,.28-1.62V65.83h4.85V72.3Zm14.84,21a1.62,1.62,0,0,1-1.62,1.62h-3.23a1.61,1.61,0,0,1-1.62-1.62V44.8a1.61,1.61,0,0,1,1.62-1.61h3.23A1.62,1.62,0,0,1,107,44.8ZM113.44,82a1.62,1.62,0,0,1-3.24,0V56.13a1.62,1.62,0,0,1,3.24,0Zm6.47-11.32a1.63,1.63,0,0,1-1.62,1.62h-1.62V65.83h1.62a1.62,1.62,0,0,1,1.62,1.62Z"/></g></g></svg>