<svg xmlns="http://www.w3.org/2000/svg" viewBox="0 0 152.37 152.37"><defs><style>.cls-1{fill:none;stroke:#2621a8;stroke-width:2px;}.cls-1,.cls-2{stroke-miterlimit:10;}.cls-2{fill:#3477f8;stroke:#fff;stroke-width:0.25px;}</style></defs><g id="Capa_2" data-name="Capa 2"><g id="Capa_1-2" data-name="Capa 1"><circle class="cls-1" cx="76.19" cy="76.19" r="75.19"/><path class="cls-2" d="M124.26,61.24,109.12,46.09a1.54,1.54,0,0,0-.8-.41l-16.67-3a1.51,1.51,0,0,0-1.76,1.21,2.45,2.45,0,0,0,0,.27,9.76,9.76,0,0,1-.13,1.44L79.27,43v-.48a7.57,7.57,0,1,0-9.09-7.42h3a4.55,4.55,0,1,1,4.54,4.54,1.52,1.52,0,0,0-1.51,1.52V43L65.76,45.57a9.76,9.76,0,0,1-.13-1.44A1.51,1.51,0,0,0,65.09,43a1.46,1.46,0,0,0-1.24-.32l-16.66,3a1.5,1.5,0,0,0-.8.41L31.24,61.24a1.51,1.51,0,0,0,0,2.14L43.36,75.5a1.51,1.51,0,0,0,2.14,0L49,72V82H38.37a7.55,7.55,0,0,0-4.5,13.63,7.52,7.52,0,0,0-1.63,10.49,7.87,7.87,0,0,0,1.63,1.63,7.55,7.55,0,0,0,4.5,13.63H92.9a1.52,1.52,0,0,0,1.07-.44l12.12-12.12a1.51,1.51,0,0,0,.43-1.07h0V72L110,75.5a1.53,1.53,0,0,0,2.15,0l12.11-12.12A1.51,1.51,0,0,0,124.26,61.24ZM77.75,45.69l11,2.76a13,13,0,0,1-22,0ZM33.83,89.58A4.55,4.55,0,0,1,38.37,85H71.69a4.55,4.55,0,1,1,0,9.09H38.37A4.54,4.54,0,0,1,33.83,89.58Zm0,12.11a4.54,4.54,0,0,1,4.54-4.54H71.69a4.55,4.55,0,1,1,0,9.09H38.37A4.55,4.55,0,0,1,33.83,101.69Zm37.86,16.66H38.37a4.54,4.54,0,0,1,0-9.08H71.69a4.54,4.54,0,1,1,0,9.08Zm22.72-2.14v-6.94h7Zm16.66-43.92-9.53-9.54L99.4,64.9l4.1,4.1v37.24H92.9a1.51,1.51,0,0,0-1.52,1.51v10.6H77.71a7.46,7.46,0,0,0-1.35-10.47l-.16-.13a7.51,7.51,0,0,0,1.63-10.48,7.68,7.68,0,0,0-1.63-1.64A7.55,7.55,0,0,0,71.69,82H52V69l4.1-4.1L54,62.75l-9.53,9.54-10-10L48.19,48.57l14.55-2.64c1,6.56,7.34,11.65,15,11.65s14-5.09,15-11.65l14.54,2.64,13.75,13.74Z"/><rect class="cls-2" x="36.86" y="88.06" width="36.35" height="3.03"/><rect class="cls-2" x="36.86" y="100.18" width="34.84" height="3.03"/><rect class="cls-2" x="36.86" y="112.3" width="34.84" height="3.03"/></g></g></svg>