<svg xmlns="http://www.w3.org/2000/svg" viewBox="0 0 152.37 152.37"><defs><style>.cls-1{fill:none;stroke:#2621a8;stroke-miterlimit:10;stroke-width:2px;}.cls-2{fill:#3477f8;}</style></defs><g id="Capa_2" data-name="Capa 2"><g id="Capa_1-2" data-name="Capa 1"><circle class="cls-1" cx="76.19" cy="76.19" r="75.19"/><path class="cls-2" d="M116.59,120.86h-9.93a1.48,1.48,0,0,1-1.28-.75l-9.51-16.83H50.6a1.46,1.46,0,1,1,0-2.92H96.72a1.44,1.44,0,0,1,1.27.74l9.52,16.83h6.57L100.83,94.5H50.76a1.47,1.47,0,0,1,0-2.93h50.93a1.45,1.45,0,0,1,1.27.74l14.9,26.36a1.46,1.46,0,0,1,0,1.46A1.49,1.49,0,0,1,116.59,120.86Z"/><path class="cls-2" d="M41.06,103.28H36.74a1.46,1.46,0,0,1-1.46-1.46V93a1.46,1.46,0,0,1,1.46-1.46h3.9a1.47,1.47,0,1,1,0,2.93H38.2v5.86h2.86a1.46,1.46,0,1,1,0,2.92Z"/><path class="cls-2" d="M42.6,120.86H34.4a1.47,1.47,0,0,1-1.34-2l8.65-20L25.85,64.64a1.45,1.45,0,0,1,.67-1.92L34,59a1.46,1.46,0,0,1,1.14-.07,1.43,1.43,0,0,1,.84.76l7.57,16.21a1.46,1.46,0,0,1-.71,2,1.48,1.48,0,0,1-2-.71L33.94,62.28,29.1,64.7,44.65,98.18a1.48,1.48,0,0,1,0,1.2l-8,18.55h5l8.78-20.35L44.64,85.22A1.47,1.47,0,0,1,47.3,84l6,13a1.48,1.48,0,0,1,0,1.2L43.94,120A1.46,1.46,0,0,1,42.6,120.86Z"/><path class="cls-2" d="M80.58,93H73.35a1.46,1.46,0,0,1-1.47-1.46V90.07a4.36,4.36,0,0,0-4.36-4.36H37.11a1.47,1.47,0,0,1-1.31-.8l-3.72-7.32a1.47,1.47,0,0,1,1.3-2.13H68A14.1,14.1,0,0,1,82,89.55v2A1.46,1.46,0,0,1,80.58,93Zm-5.77-2.92h4.3v-.57A11.17,11.17,0,0,0,68,78.39H35.77L38,82.78H67.52a7.3,7.3,0,0,1,7.29,7.29Z"/><path class="cls-2" d="M94.58,66.93a9.78,9.78,0,1,1,9.77-9.77A9.78,9.78,0,0,1,94.58,66.93Zm0-16.62a6.85,6.85,0,1,0,6.84,6.85A6.86,6.86,0,0,0,94.58,50.31Z"/><path class="cls-2" d="M95.31,44.71a1.46,1.46,0,0,1-1.46-1.46V37.39a1.47,1.47,0,0,1,2.93,0v5.86A1.46,1.46,0,0,1,95.31,44.71Z"/><path class="cls-2" d="M95.31,78.39a1.46,1.46,0,0,1-1.46-1.46V71.07a1.47,1.47,0,0,1,2.93,0v5.86A1.46,1.46,0,0,1,95.31,78.39Z"/><path class="cls-2" d="M80.67,57.89H73.35a1.47,1.47,0,1,1,0-2.93h7.32a1.47,1.47,0,0,1,0,2.93Z"/><path class="cls-2" d="M115.81,57.89h-7.32a1.47,1.47,0,0,1,0-2.93h7.32a1.47,1.47,0,1,1,0,2.93Z"/><path class="cls-2" d="M84.15,48.69a1.44,1.44,0,0,1-1-.37l-5.49-4.85a1.46,1.46,0,1,1,1.94-2.19l5.49,4.84a1.47,1.47,0,0,1-1,2.57Z"/><path class="cls-2" d="M110.5,71.94a1.44,1.44,0,0,1-1-.37L104,66.73a1.47,1.47,0,1,1,1.94-2.2l5.49,4.85a1.48,1.48,0,0,1,.13,2.07A1.5,1.5,0,0,1,110.5,71.94Z"/><path class="cls-2" d="M105,48.69a1.47,1.47,0,0,1-1-2.57l5.49-4.84a1.46,1.46,0,1,1,1.94,2.19L106,48.32A1.46,1.46,0,0,1,105,48.69Z"/><path class="cls-2" d="M78.66,71.94a1.5,1.5,0,0,1-1.1-.49,1.47,1.47,0,0,1,.13-2.07l5.49-4.85a1.47,1.47,0,1,1,1.94,2.2l-5.49,4.84A1.44,1.44,0,0,1,78.66,71.94Z"/></g></g></svg>