<svg xmlns="http://www.w3.org/2000/svg" viewBox="0 0 60.59 60.56"><defs><style>.cls-1{fill:#fff;}.cls-2{fill:#2621a3;}</style></defs><g id="Capa_2" data-name="Capa 2"><g id="Capa_1-2" data-name="Capa 1"><circle id="Elipse_34" data-name="Elipse 34" class="cls-1" cx="31.09" cy="13.62" r="9.45"/><g id="Grupo_1814" data-name="Grupo 1814"><path id="Trazado_2113" data-name="Trazado 2113" class="cls-2" d="M32.2,60.56H28.41a3.13,3.13,0,0,0-.44-.1,29.17,29.17,0,0,1-7.89-1.68A30.27,30.27,0,1,1,45.47,4.1a29.43,29.43,0,0,1,14.66,21c.2,1.08.31,2.18.46,3.27v3.67c0,.19-.08.38-.1.57-.17,1.19-.27,2.39-.5,3.56A30.25,30.25,0,0,1,35.52,60.1C34.42,60.28,33.31,60.41,32.2,60.56Z"/></g><path class="cls-1" d="M30.27,56.38A11.63,11.63,0,0,1,18.66,44.77V15.71a11.61,11.61,0,0,1,23.22,0V44.77A11.63,11.63,0,0,1,30.27,56.38Zm0-50.31a9.65,9.65,0,0,0-9.63,9.64V44.77a9.63,9.63,0,0,0,19.26,0V15.71A9.65,9.65,0,0,0,30.27,6.07Z"/><circle class="cls-1" cx="30.27" cy="16.2" r="7"/></g></g></svg>