<svg xmlns="http://www.w3.org/2000/svg" viewBox="0 0 509.97 184.61"><defs><style>.cls-1{fill:#3477f4;}.cls-2{fill:#2621a2;}.cls-3{fill:#fff;}.cls-4{fill:#55a1f5;}</style></defs><g id="Capa_2" data-name="Capa 2"><g id="Capa_1-2" data-name="Capa 1"><g id="Grupo_838" data-name="Grupo 838"><g id="Grupo_830" data-name="Grupo 830"><path id="Trazado_1067" data-name="Trazado 1067" class="cls-1" d="M74.06,36.77a48.19,48.19,0,0,0-24.92-6.49A48.16,48.16,0,0,0,6.5,54.49,49.51,49.51,0,0,0,0,79.77,52.46,52.46,0,0,0,6,105a46.08,46.08,0,0,0,16.29,17.62,42.87,42.87,0,0,0,23.32,6.5,42.87,42.87,0,0,0,23.32-6.5,45.4,45.4,0,0,0,11-9.74v6.63a9.08,9.08,0,1,0,18.16,0V79.77a49.52,49.52,0,0,0-6.5-25.28A48.31,48.31,0,0,0,74.06,36.77Zm-8.72,71.92a30.26,30.26,0,0,1-16.19,4.36A30.37,30.37,0,0,1,33,108.69a31.45,31.45,0,0,1-11.4-11.92,34.56,34.56,0,0,1-4.18-17,35,35,0,0,1,4.18-17.18A31.47,31.47,0,0,1,33,50.66,30.55,30.55,0,0,1,49.15,46.3a30.44,30.44,0,0,1,16.19,4.36A31.08,31.08,0,0,1,76.56,62.59a35.66,35.66,0,0,1,4.09,17.18,35.22,35.22,0,0,1-4.09,17,31.12,31.12,0,0,1-11.22,11.92Z"/><path id="Trazado_1068" data-name="Trazado 1068" class="cls-1" d="M191.86,30.81a9,9,0,0,0-6.5,2.49,8.74,8.74,0,0,0-2.58,6.59v50.2a20,20,0,0,1-3.56,11.57,25.22,25.22,0,0,1-9.53,8.19,29.59,29.59,0,0,1-13.62,3,32.54,32.54,0,0,1-14.42-3.12,23.25,23.25,0,0,1-10.14-9.61,32.59,32.59,0,0,1-3.74-16.46V39.9a9.08,9.08,0,1,0-18.16,0V83.69a50.91,50.91,0,0,0,5.61,24.93A37.82,37.82,0,0,0,130.53,124a45.37,45.37,0,0,0,22,5.26,43.22,43.22,0,0,0,21.27-5.17,39.88,39.88,0,0,0,9-6.77v2a9.26,9.26,0,0,0,15.67,6.49,9,9,0,0,0,2.49-6.49V39.9a8.57,8.57,0,0,0-9.07-9.09Z"/><path id="Trazado_1069" data-name="Trazado 1069" class="cls-1" d="M276.32,77.81a79.39,79.39,0,0,0-21.1-6.76,84.73,84.73,0,0,1-14.59-4A14.22,14.22,0,0,1,234,62.41a10.23,10.23,0,0,1-1.69-5.78,8.42,8.42,0,0,1,5.43-7.82A29.7,29.7,0,0,1,251,46.14a40.16,40.16,0,0,1,11.93,1.6,24.35,24.35,0,0,1,9.61,5.87,12.71,12.71,0,0,0,6.59,3.21,8.73,8.73,0,0,0,6.76-1.25,6.91,6.91,0,0,0,3-5.25,8.21,8.21,0,0,0-2.32-6A35.43,35.43,0,0,0,272.13,34a54.3,54.3,0,0,0-20.82-3.74,52.38,52.38,0,0,0-17.45,2.94,32.41,32.41,0,0,0-13.7,8.9,21.72,21.72,0,0,0-5.35,15,22.36,22.36,0,0,0,8.1,17.45Q231,81.75,249,85.3q13.89,2.49,19.13,6.41A10.87,10.87,0,0,1,273.2,101a10.47,10.47,0,0,1-5.61,8.72,30.07,30.07,0,0,1-15.76,3.38A36.63,36.63,0,0,1,237,110.14a28.49,28.49,0,0,1-9.72-6.32,9.65,9.65,0,0,0-6-3.12,9.28,9.28,0,0,0-7,2.41,8.55,8.55,0,0,0-3.47,6,7.78,7.78,0,0,0,2.22,6.5,44.18,44.18,0,0,0,16.46,9.71,67.42,67.42,0,0,0,23.08,3.8,50.09,50.09,0,0,0,21.1-3.92,30,30,0,0,0,12.82-10.5,26.12,26.12,0,0,0,4.35-14.78,23.22,23.22,0,0,0-3.38-12.55A28.23,28.23,0,0,0,276.32,77.81Z"/><path id="Trazado_1070" data-name="Trazado 1070" class="cls-1" d="M348.48,110.56h-6.05a12,12,0,0,1-9.62-4.8,18.33,18.33,0,0,1-3.92-11.93v-44H344a8.58,8.58,0,0,0,6.05-2.14,6.94,6.94,0,0,0,2.31-5.34,7.36,7.36,0,0,0-2.31-5.69A8.58,8.58,0,0,0,344,34.54H328.9V8.91a8.9,8.9,0,1,0-17.8,0V34.54h-8.19a8.55,8.55,0,0,0-6.05,2.14,7.4,7.4,0,0,0-2.32,5.69,6.94,6.94,0,0,0,2.32,5.34,8.55,8.55,0,0,0,6.05,2.14h8.19v44a37.44,37.44,0,0,0,4.09,17.62,31.92,31.92,0,0,0,11.22,12.38,29.18,29.18,0,0,0,16,4.54h3.2a11.34,11.34,0,0,0,7.56-2.5,8,8,0,0,0,2.94-6.4,9.28,9.28,0,0,0-2.23-6.41A7,7,0,0,0,348.48,110.56Z"/><path id="Trazado_1071" data-name="Trazado 1071" class="cls-1" d="M502,50.75a37.84,37.84,0,0,0-15.31-15.4,45.47,45.47,0,0,0-22-5.25,43.48,43.48,0,0,0-21.19,5.16A40.61,40.61,0,0,0,434.45,42v-2a9.26,9.26,0,0,0-15.58-6.59,8.81,8.81,0,0,0-2.58,6.59v79.4a8.82,8.82,0,0,0,9.08,9.07A8.72,8.72,0,0,0,432,126a9,9,0,0,0,2.49-6.49V69.27A19.73,19.73,0,0,1,438,57.61a25.22,25.22,0,0,1,9.61-8.1,30,30,0,0,1,13.53-3,32.51,32.51,0,0,1,14.51,3.12,23.58,23.58,0,0,1,10.05,9.53,32.51,32.51,0,0,1,3.74,16.55v43.79a9.08,9.08,0,1,0,18.16,0V75.68A50.91,50.91,0,0,0,502,50.75Z"/></g><g id="Grupo_831" data-name="Grupo 831"><path id="Rectángulo_239" data-name="Rectángulo 239" class="cls-2" d="M384.89,25.33h0a21.51,21.51,0,0,1,21.5,21.5v58.86a21.51,21.51,0,0,1-21.5,21.5h0a21.51,21.51,0,0,1-21.51-21.5V46.83A21.51,21.51,0,0,1,384.89,25.33Z"/></g><circle id="Elipse_34" data-name="Elipse 34" class="cls-3" cx="384.89" cy="46.83" r="16.73"/><g id="Grupo_837" data-name="Grupo 837"><g id="Grupo_835" data-name="Grupo 835"><g id="Grupo_833" data-name="Grupo 833"><g id="Grupo_832" data-name="Grupo 832"><path id="Trazado_1072" data-name="Trazado 1072" class="cls-4" d="M336.73,168.76a15.91,15.91,0,0,1-1.48,4.34,11.6,11.6,0,0,1-2.54,3.32,10.94,10.94,0,0,1-3.56,2.16,12.57,12.57,0,0,1-4.46.76,14.07,14.07,0,0,1-5.13-.92,11.18,11.18,0,0,1-4.1-2.78,13.29,13.29,0,0,1-2.72-4.57,18.69,18.69,0,0,1-1-6.34,20.91,20.91,0,0,1,.91-6.38,13.66,13.66,0,0,1,2.59-4.8,11.18,11.18,0,0,1,4.1-3,13.55,13.55,0,0,1,5.4-1.06,13.85,13.85,0,0,1,4.73.78,11.28,11.28,0,0,1,3.66,2.16,10.33,10.33,0,0,1,2.43,3.22,11.38,11.38,0,0,1,1.12,4h-5.85a6.56,6.56,0,0,0-2.27-3.73,6.53,6.53,0,0,0-9.18,1.31,16.18,16.18,0,0,0,0,14.48,5.73,5.73,0,0,0,5.13,2.59,6.09,6.09,0,0,0,4.19-1.41,7.48,7.48,0,0,0,2.16-4.06Z"/><path id="Trazado_1073" data-name="Trazado 1073" class="cls-4" d="M348.22,178.91a11.92,11.92,0,0,1-4.5-.81,9.51,9.51,0,0,1-3.35-2.23,9.61,9.61,0,0,1-2.08-3.45,13,13,0,0,1-.72-4.42,12.77,12.77,0,0,1,.74-4.46,9.29,9.29,0,0,1,5.47-5.67,12,12,0,0,1,4.44-.78,11.7,11.7,0,0,1,4.38.78,9.29,9.29,0,0,1,5.41,5.62,14,14,0,0,1,0,9,9.66,9.66,0,0,1-2.11,3.43,9.3,9.3,0,0,1-3.32,2.21A11.61,11.61,0,0,1,348.22,178.91Zm0-4.59q5,0,5-6.31t-5-6.27q-5,0-5,6.27t5,6.31Z"/><path id="Trazado_1074" data-name="Trazado 1074" class="cls-4" d="M374,178.36V165.81a4.8,4.8,0,0,0-.8-3.23,3.65,3.65,0,0,0-2.74-.84c-2.84,0-4.25,1.58-4.25,4.75v11.87h-5.47V157.65h5.22v3a6.67,6.67,0,0,1,2.57-2.67,8.33,8.33,0,0,1,4.13-.91,8.18,8.18,0,0,1,2.73.44,5.88,5.88,0,0,1,2.16,1.33A6.37,6.37,0,0,1,379,161a7.73,7.73,0,0,1,.53,3v14.35Z"/><path id="Trazado_1075" data-name="Trazado 1075" class="cls-4" d="M393.64,164.73h5.1v5.89a10.09,10.09,0,0,1-.49,3.13,7.11,7.11,0,0,1-4.12,4.49,9.58,9.58,0,0,1-3.78.67,9.92,9.92,0,0,1-3.88-.67,7.43,7.43,0,0,1-2.63-1.81,6.8,6.8,0,0,1-1.49-2.66,11.11,11.11,0,0,1-.47-3.2V152.05h5.4v5.6h11.45v3.88H387.28V170a5.34,5.34,0,0,0,.74,3.05,2.71,2.71,0,0,0,2.43,1.08,2.79,2.79,0,0,0,2.42-1,4.88,4.88,0,0,0,.78-3Z"/><path id="Trazado_1076" data-name="Trazado 1076" class="cls-4" d="M401.1,155.17v-5.1h5.47v5.1Zm0,23.2V157.66h5.47v20.71Z"/><path id="Trazado_1077" data-name="Trazado 1077" class="cls-4" d="M422.31,178.36V165.81a4.8,4.8,0,0,0-.8-3.23,3.65,3.65,0,0,0-2.74-.84c-2.84,0-4.25,1.58-4.25,4.75v11.87H409V157.65h5.23v3a6.58,6.58,0,0,1,2.56-2.67,8.35,8.35,0,0,1,4.13-.91,8.23,8.23,0,0,1,2.74.44,5.93,5.93,0,0,1,2.15,1.33,6.39,6.39,0,0,1,1.44,2.16,7.92,7.92,0,0,1,.52,3v14.35Z"/><path id="Trazado_1078" data-name="Trazado 1078" class="cls-4" d="M435.24,169.44a5.87,5.87,0,0,0,1.36,3.74,4.16,4.16,0,0,0,3.27,1.39,4.55,4.55,0,0,0,2.38-.61,2.75,2.75,0,0,0,1.32-1.7h5.64a9,9,0,0,1-3.36,4.92,9.56,9.56,0,0,1-5.73,1.73q-10.35,0-10.36-11.28a13,13,0,0,1,.68-4.34,9.28,9.28,0,0,1,2-3.33,8.48,8.48,0,0,1,3.13-2.12,11.25,11.25,0,0,1,4.26-.74,8.74,8.74,0,0,1,7.26,3.07,14.65,14.65,0,0,1,2.46,9.27Zm8.63-3.45a5.66,5.66,0,0,0-.4-2,3.94,3.94,0,0,0-1-1.43,3.73,3.73,0,0,0-1.35-.85,4.56,4.56,0,0,0-1.55-.27,3.92,3.92,0,0,0-2.85,1.2,5.15,5.15,0,0,0-1.36,3.35Z"/><path id="Trazado_1079" data-name="Trazado 1079" class="cls-4" d="M464.65,178.36V165.81a4.8,4.8,0,0,0-.8-3.23,3.65,3.65,0,0,0-2.74-.84c-2.84,0-4.25,1.58-4.25,4.75v11.87h-5.48V157.65h5.23v3a6.58,6.58,0,0,1,2.56-2.67,8.35,8.35,0,0,1,4.13-.91,8.23,8.23,0,0,1,2.74.44,5.93,5.93,0,0,1,2.15,1.33,6.37,6.37,0,0,1,1.43,2.16,7.56,7.56,0,0,1,.54,3v14.35Z"/><path id="Trazado_1080" data-name="Trazado 1080" class="cls-4" d="M484.32,164.73h5.1v5.89a10.09,10.09,0,0,1-.49,3.13,7.11,7.11,0,0,1-4.12,4.49,9.58,9.58,0,0,1-3.78.67,9.84,9.84,0,0,1-3.87-.67,7.37,7.37,0,0,1-2.64-1.81,6.8,6.8,0,0,1-1.49-2.66,10.77,10.77,0,0,1-.46-3.2V152.05H478v5.6h11.46v3.88H478V170a5.34,5.34,0,0,0,.74,3.05,2.7,2.7,0,0,0,2.43,1.08,2.79,2.79,0,0,0,2.42-1,4.88,4.88,0,0,0,.78-3Z"/><path id="Trazado_1081" data-name="Trazado 1081" class="cls-4" d="M504.11,163.92a2.94,2.94,0,0,0-1.09-2.13,5.07,5.07,0,0,0-2.78-.61,6,6,0,0,0-2.4.4,1.36,1.36,0,0,0-.84,1.33,1.55,1.55,0,0,0,.84,1.41,11.34,11.34,0,0,0,2.53,1c1.18.33,2.3.64,3.36.9a24.81,24.81,0,0,1,2.82.86,5.89,5.89,0,0,1,2.53,1.84,5.06,5.06,0,0,1,.88,3.18,6.07,6.07,0,0,1-2.29,5,10.84,10.84,0,0,1-6.75,1.81,11.62,11.62,0,0,1-7.34-2,6.55,6.55,0,0,1-2.63-5.18h5.61a2.62,2.62,0,0,0,1.13,2.27,5.42,5.42,0,0,0,3.16.81,6.28,6.28,0,0,0,2.57-.48,1.68,1.68,0,0,0,1.09-1.67,1.57,1.57,0,0,0-1-1.55,12.14,12.14,0,0,0-2.33-.81c-1.74-.42-3.15-.8-4.21-1.14a10.77,10.77,0,0,1-2.7-1.22,5.28,5.28,0,0,1-2-2.1,5.85,5.85,0,0,1-.57-2.57,6.33,6.33,0,0,1,.47-2.43,4.7,4.7,0,0,1,1.51-2,7.64,7.64,0,0,1,2.72-1.28,15.1,15.1,0,0,1,4-.47,10.53,10.53,0,0,1,6.63,1.73,6.77,6.77,0,0,1,2.33,5.09Z"/></g></g><g id="Grupo_834" data-name="Grupo 834"><path id="Trazado_1082" data-name="Trazado 1082" class="cls-4" d="M270.61,147.94a18.43,18.43,0,0,0,8.55-3.15,20.56,20.56,0,0,1,9.55-3.51,23.71,23.71,0,0,1,4.21-.2,23.53,23.53,0,0,0-31.3,6A18.2,18.2,0,0,0,270.61,147.94Z"/><path id="Trazado_1083" data-name="Trazado 1083" class="cls-4" d="M272.88,155.87a15.32,15.32,0,0,0,8.16-1.12,19.3,19.3,0,0,1,18.1,2,16.16,16.16,0,0,0,4.83,2.35,23.49,23.49,0,0,0-6.9-14.78,17.79,17.79,0,0,0-8-.57,18.31,18.31,0,0,0-8.55,3.14,20.56,20.56,0,0,1-9.55,3.51,25.86,25.86,0,0,1-3.29.23,21,21,0,0,1-6.84-1.21l-.61-.19c-.2.34-.4.69-.58,1.05a17.82,17.82,0,0,1,5.57,2.68A15.25,15.25,0,0,0,272.88,155.87Z"/><path id="Trazado_1084" data-name="Trazado 1084" class="cls-4" d="M270.61,168.74a18.32,18.32,0,0,0,8.55-3.15,22.82,22.82,0,0,1,19.68-2.52,20.51,20.51,0,0,0,5,1.06c.1-.8.17-1.6.19-2.4a17.51,17.51,0,0,1-6.27-2.86,16.84,16.84,0,0,0-15.87-1.76,19.3,19.3,0,0,1-18.1-2,15.5,15.5,0,0,0-5.25-2.46,23.6,23.6,0,0,0-.85,14.25,26.65,26.65,0,0,1,3.84,1A18.26,18.26,0,0,0,270.61,168.74Z"/><path id="Trazado_1085" data-name="Trazado 1085" class="cls-4" d="M281.38,177.51a19.32,19.32,0,0,1-18.1-2,26,26,0,0,0-2.37-1.42,23.52,23.52,0,0,0,35.3,4.53,14.58,14.58,0,0,0-6.67-2.23A15.22,15.22,0,0,0,281.38,177.51Z"/><path id="Trazado_1086" data-name="Trazado 1086" class="cls-4" d="M298.08,165.46a20.37,20.37,0,0,0-17.61,2.26,20.71,20.71,0,0,1-9.55,3.51,25.88,25.88,0,0,1-3.3.22,20.9,20.9,0,0,1-6.83-1.21c-.73-.22-1.45-.45-2.21-.63.14.36.29.72.46,1.09a18,18,0,0,1,5.6,2.7,16.78,16.78,0,0,0,15.86,1.77,17.53,17.53,0,0,1,9.3-1.26,17.14,17.14,0,0,1,8.23,2.9,23.49,23.49,0,0,0,5.36-10.19A22.5,22.5,0,0,1,298.08,165.46Z"/></g></g><g id="Grupo_836" data-name="Grupo 836"><path id="Trazado_1087" data-name="Trazado 1087" class="cls-4" d="M212.42,177.13V154.66H215v7.77a10.5,10.5,0,0,1,2.7-1.35,8.41,8.41,0,0,1,2.63-.42,4.7,4.7,0,0,1,4.13,2.1,10.66,10.66,0,0,1,1.44,6,14.11,14.11,0,0,1-.81,5.23,5.53,5.53,0,0,1-2.52,2.91,9.23,9.23,0,0,1-4.35.93,22.28,22.28,0,0,1-2.7-.19C214.6,177.56,213.55,177.37,212.42,177.13Zm2.6-1.58c.66.12,1.25.22,1.77.29a10,10,0,0,0,1.45.11,5.28,5.28,0,0,0,2.83-.68,4,4,0,0,0,1.64-2.19,12.35,12.35,0,0,0,.54-4.09,11.12,11.12,0,0,0-.43-3.39,4.15,4.15,0,0,0-1.3-2,3.18,3.18,0,0,0-2.07-.7A6.27,6.27,0,0,0,218,163a6.58,6.58,0,0,0-1.41.5,13.74,13.74,0,0,0-1.59.89Z"/><path id="Trazado_1088" data-name="Trazado 1088" class="cls-4" d="M231.58,184l2.1-6.44h-.5L226.81,161l2.82-.15,5.1,14.36,4.46-14.36,2.63.15-7.62,23.15Z"/></g></g></g></g></g></svg>