<svg xmlns="http://www.w3.org/2000/svg" viewBox="0 0 493.58 179.27"><defs><style>.cls-1{fill:#fff;}</style></defs><g id="Capa_2" data-name="Capa 2"><g id="Capa_1-2" data-name="Capa 1"><path class="cls-1" d="M71.91,35.7a46.77,46.77,0,0,0-24.2-6.31A47.25,47.25,0,0,0,23.42,35.7,46.74,46.74,0,0,0,6.31,52.9,48,48,0,0,0,0,77.44,50.94,50.94,0,0,0,5.79,101.9,44.79,44.79,0,0,0,21.61,119a41.57,41.57,0,0,0,22.64,6.31A41.61,41.61,0,0,0,66.9,119a44.1,44.1,0,0,0,10.72-9.46V116a8.82,8.82,0,1,0,17.63,0V77.44A48,48,0,0,0,88.94,52.9,46.9,46.9,0,0,0,71.91,35.7Zm-8.47,69.84a29.53,29.53,0,0,1-15.73,4.23,29.63,29.63,0,0,1-15.64-4.23A30.61,30.61,0,0,1,21,94a33.6,33.6,0,0,1-4.06-16.51A34,34,0,0,1,21,60.76,30.65,30.65,0,0,1,32.07,49.18,29.63,29.63,0,0,1,47.71,45a29.53,29.53,0,0,1,15.73,4.23A30.2,30.2,0,0,1,74.33,60.76a34.5,34.5,0,0,1,4,16.68,34.11,34.11,0,0,1-4,16.51A30.16,30.16,0,0,1,63.44,105.54Z"/><path class="cls-1" d="M186.3,29.91A8.68,8.68,0,0,0,180,32.33a8.44,8.44,0,0,0-2.51,6.39V87.47A19.31,19.31,0,0,1,174,98.71a24.38,24.38,0,0,1-9.24,8,28.85,28.85,0,0,1-13.23,2.94,31.58,31.58,0,0,1-14-3,22.53,22.53,0,0,1-9.85-9.33q-3.63-6.31-3.63-16V38.72a8.82,8.82,0,1,0-17.64,0V81.25q0,14.34,5.45,24.2a36.73,36.73,0,0,0,14.87,15,44.1,44.1,0,0,0,21.35,5.1,42,42,0,0,0,20.65-5,38.77,38.77,0,0,0,8.73-6.58v1.91a9,9,0,0,0,15.21,6.31,8.68,8.68,0,0,0,2.42-6.31V38.72a8.32,8.32,0,0,0-8.81-8.81Z"/><path class="cls-1" d="M268.32,75.54q-7.51-4-20.49-6.57a82.16,82.16,0,0,1-14.17-3.89q-4.84-2-6.48-4.49A10,10,0,0,1,225.54,55q0-5,5.27-7.6a28.93,28.93,0,0,1,12.88-2.6,39,39,0,0,1,11.58,1.56A23.63,23.63,0,0,1,264.6,52a12.26,12.26,0,0,0,6.4,3.11,8.44,8.44,0,0,0,6.57-1.21,6.71,6.71,0,0,0,2.94-5.1A8,8,0,0,0,278.26,43a34.51,34.51,0,0,0-14-10A52.79,52.79,0,0,0,244,29.39a50.81,50.81,0,0,0-16.94,2.85,31.45,31.45,0,0,0-13.31,8.64q-5.19,5.81-5.19,14.61a21.68,21.68,0,0,0,7.87,16.94q7.86,6.91,25.33,10.37,13.49,2.43,18.58,6.23t4.92,9q-.17,5.17-5.44,8.47t-15.3,3.28a35.47,35.47,0,0,1-14.43-2.85q-6.48-2.85-9.43-6.14a9.33,9.33,0,0,0-5.78-3q-3.37-.44-6.83,2.33a8.34,8.34,0,0,0-3.38,5.79,7.58,7.58,0,0,0,2.16,6.31q5.71,5.7,16,9.42a65.28,65.28,0,0,0,22.38,3.72q12.27,0,20.49-3.8a29.17,29.17,0,0,0,12.44-10.2A25.47,25.47,0,0,0,282.41,97a22.59,22.59,0,0,0-3.29-12.19Q275.84,79.53,268.32,75.54Z"/><path class="cls-1" d="M338.39,107.35h-5.88a11.61,11.61,0,0,1-9.33-4.67,17.7,17.7,0,0,1-3.8-11.58V48.4h14.69A8.34,8.34,0,0,0,340,46.33a6.79,6.79,0,0,0,2.25-5.19A7.2,7.2,0,0,0,340,35.61a8.34,8.34,0,0,0-5.88-2.07H319.38V8.64A8.45,8.45,0,0,0,317,2.42a9.22,9.22,0,0,0-12.45,0,8.41,8.41,0,0,0-2.42,6.22v24.9h-7.95a8.34,8.34,0,0,0-5.88,2.07A7.16,7.16,0,0,0,286,41.14a6.76,6.76,0,0,0,2.25,5.19,8.34,8.34,0,0,0,5.88,2.07h7.95V91.1a36.25,36.25,0,0,0,4,17.11,30.89,30.89,0,0,0,10.89,12,28.3,28.3,0,0,0,15.55,4.41h3.12a11,11,0,0,0,7.34-2.42,7.82,7.82,0,0,0,2.86-6.23,9.05,9.05,0,0,0-2.16-6.22A6.84,6.84,0,0,0,338.39,107.35Z"/><path class="cls-1" d="M487.48,49.27a36.73,36.73,0,0,0-14.86-15,44.23,44.23,0,0,0-21.35-5.09,42.13,42.13,0,0,0-20.57,5,39.43,39.43,0,0,0-8.82,6.57V38.9a9,9,0,0,0-15.13-6.4,8.49,8.49,0,0,0-2.5,6.4V116a8.57,8.57,0,0,0,8.82,8.82,8.45,8.45,0,0,0,6.39-2.51,8.72,8.72,0,0,0,2.42-6.31V67.25a19.21,19.21,0,0,1,3.46-11.33,24.53,24.53,0,0,1,9.33-7.86,29,29,0,0,1,13.14-2.94,31.56,31.56,0,0,1,14.09,3,22.89,22.89,0,0,1,9.77,9.25q3.63,6.22,3.63,16.08V116a8.82,8.82,0,1,0,17.63,0V73.47Q492.93,59.11,487.48,49.27Z"/><path class="cls-1" d="M373.74,125.44a22.85,22.85,0,0,1-22.82-22.83V45.46a22.83,22.83,0,0,1,45.65,0v57.15A22.85,22.85,0,0,1,373.74,125.44Zm0-98.92A19,19,0,0,0,354.8,45.46v57.15a18.95,18.95,0,0,0,37.89,0V45.46A19,19,0,0,0,373.74,26.52Z"/><circle class="cls-1" cx="373.74" cy="46.43" r="15.35"/><path class="cls-1" d="M325.36,163.87a15.15,15.15,0,0,1-1.44,4.21,11.19,11.19,0,0,1-2.47,3.23A10.6,10.6,0,0,1,318,173.4a12.31,12.31,0,0,1-4.34.73,13.53,13.53,0,0,1-5-.9,10.7,10.7,0,0,1-4-2.7,12.71,12.71,0,0,1-2.64-4.43,18,18,0,0,1-1-6.15,20.59,20.59,0,0,1,.88-6.2,13.27,13.27,0,0,1,2.52-4.66,11,11,0,0,1,4-2.92,13.09,13.09,0,0,1,5.26-1,13.35,13.35,0,0,1,4.59.75A10.91,10.91,0,0,1,321.9,148a9.83,9.83,0,0,1,2.37,3.13,11.23,11.23,0,0,1,1.09,3.84h-5.69a6.37,6.37,0,0,0-2.2-3.62,6.33,6.33,0,0,0-8.92,1.27,15.72,15.72,0,0,0,0,14.06,5.56,5.56,0,0,0,5,2.52,5.89,5.89,0,0,0,4.07-1.37,7.24,7.24,0,0,0,2.1-3.95Z"/><path class="cls-1" d="M336.52,173.72a11.76,11.76,0,0,1-4.38-.77,9,9,0,0,1-5.27-5.52,13.47,13.47,0,0,1,0-8.63,9.22,9.22,0,0,1,2.06-3.35,9.32,9.32,0,0,1,3.25-2.15,11.72,11.72,0,0,1,4.32-.75,11.41,11.41,0,0,1,4.25.75,9,9,0,0,1,5.25,5.46,12.66,12.66,0,0,1,.72,4.38,12.48,12.48,0,0,1-.72,4.35,9.7,9.7,0,0,1-2,3.33,9.15,9.15,0,0,1-3.23,2.15A11.46,11.46,0,0,1,336.52,173.72Zm0-4.45c3.24,0,4.86-2.05,4.86-6.13s-1.62-6.1-4.86-6.1-4.87,2-4.87,6.1S333.27,169.27,336.52,169.27Z"/><path class="cls-1" d="M361.53,173.19V161a4.75,4.75,0,0,0-.77-3.15,3.6,3.6,0,0,0-2.66-.82q-4.12,0-4.13,4.62v11.53h-5.31V153.08h5.07V156a6.35,6.35,0,0,1,2.49-2.59,8,8,0,0,1,4-.88,7.84,7.84,0,0,1,2.65.43,5.6,5.6,0,0,1,2.11,1.28,6.36,6.36,0,0,1,1.39,2.11,7.55,7.55,0,0,1,.51,2.88v13.94Z"/><path class="cls-1" d="M380.62,160h4.95v5.72a10,10,0,0,1-.47,3.05,7,7,0,0,1-4,4.35,9.46,9.46,0,0,1-3.66.65,9.74,9.74,0,0,1-3.76-.65,7.12,7.12,0,0,1-2.56-1.76,6.6,6.6,0,0,1-1.45-2.57,10.63,10.63,0,0,1-.45-3.11v-18h5.23v5.44h11.12v3.76H374.45v8.26a5.16,5.16,0,0,0,.72,3,2.62,2.62,0,0,0,2.35,1,2.74,2.74,0,0,0,2.35-1,4.84,4.84,0,0,0,.75-2.9Z"/><path class="cls-1" d="M387.86,150.67v-4.95h5.31v4.95Zm0,22.52V153.08h5.31v20.11Z"/><path class="cls-1" d="M408.46,173.19V161a4.75,4.75,0,0,0-.77-3.15A3.6,3.6,0,0,0,405,157q-4.12,0-4.13,4.62v11.53h-5.31V153.08h5.07V156a6.35,6.35,0,0,1,2.49-2.59,8,8,0,0,1,4-.88,7.84,7.84,0,0,1,2.65.43,5.6,5.6,0,0,1,2.11,1.28,6.36,6.36,0,0,1,1.39,2.11,7.55,7.55,0,0,1,.51,2.88v13.94Z"/><path class="cls-1" d="M421,164.52a5.81,5.81,0,0,0,1.33,3.64,4.05,4.05,0,0,0,3.17,1.35,4.51,4.51,0,0,0,2.31-.59,2.69,2.69,0,0,0,1.29-1.66h5.48a8.85,8.85,0,0,1-3.27,4.79,9.34,9.34,0,0,1-5.56,1.67q-10.06,0-10.06-10.95a12.87,12.87,0,0,1,.65-4.21,9.12,9.12,0,0,1,1.9-3.23,8.34,8.34,0,0,1,3.05-2.07,11.28,11.28,0,0,1,4.13-.71q4.67,0,7.05,3c1.6,2,2.39,5,2.39,9Zm8.38-3.35a5.49,5.49,0,0,0-.38-1.94,4.22,4.22,0,0,0-.92-1.39,3.76,3.76,0,0,0-1.31-.82,4.61,4.61,0,0,0-1.51-.26,3.77,3.77,0,0,0-2.76,1.16,5,5,0,0,0-1.33,3.25Z"/><path class="cls-1" d="M449.59,173.19V161a4.68,4.68,0,0,0-.78-3.15,3.57,3.57,0,0,0-2.65-.82c-2.76,0-4.13,1.54-4.13,4.62v11.53h-5.32V153.08h5.07V156a6.48,6.48,0,0,1,2.49-2.59,8.07,8.07,0,0,1,4-.88,7.94,7.94,0,0,1,2.66.43,5.48,5.48,0,0,1,2.1,1.28,6.21,6.21,0,0,1,1.39,2.11,7.55,7.55,0,0,1,.51,2.88v13.94Z"/><path class="cls-1" d="M468.68,160h4.95v5.72a10,10,0,0,1-.47,3.05,7.26,7.26,0,0,1-1.48,2.57,7,7,0,0,1-2.53,1.78,9.39,9.39,0,0,1-3.66.65,9.81,9.81,0,0,1-3.76-.65,7,7,0,0,1-2.55-1.76,6.62,6.62,0,0,1-1.46-2.57,10.63,10.63,0,0,1-.45-3.11v-18h5.24v5.44h11.12v3.76H462.51v8.26a5.24,5.24,0,0,0,.71,3,2.63,2.63,0,0,0,2.35,1,2.72,2.72,0,0,0,2.35-1,4.77,4.77,0,0,0,.76-2.9Z"/><path class="cls-1" d="M487.89,159.17a2.85,2.85,0,0,0-1.06-2.07,4.87,4.87,0,0,0-2.7-.59,5.57,5.57,0,0,0-2.33.39,1.34,1.34,0,0,0-.82,1.29,1.51,1.51,0,0,0,.82,1.37,11.18,11.18,0,0,0,2.46.92c1.14.32,2.23.62,3.27.88a25,25,0,0,1,2.73.83,5.79,5.79,0,0,1,2.46,1.78,5,5,0,0,1,.86,3.09,5.93,5.93,0,0,1-2.23,4.91q-2.24,1.75-6.56,1.75-4.67,0-7.14-2a6.35,6.35,0,0,1-2.55-5h5.48a2.53,2.53,0,0,0,1.1,2.21,5.26,5.26,0,0,0,3.07.78,6.18,6.18,0,0,0,2.49-.47,1.64,1.64,0,0,0,1.06-1.62,1.55,1.55,0,0,0-1-1.51,12.75,12.75,0,0,0-2.27-.78c-1.69-.41-3.05-.77-4.09-1.1a10.55,10.55,0,0,1-2.61-1.19,5,5,0,0,1-2-2,5.65,5.65,0,0,1-.56-2.49,6.26,6.26,0,0,1,.45-2.38,4.63,4.63,0,0,1,1.47-1.9,7.62,7.62,0,0,1,2.64-1.24,14.75,14.75,0,0,1,3.91-.45c2.91,0,5.06.56,6.43,1.67a6.54,6.54,0,0,1,2.27,4.95Z"/><path class="cls-1" d="M261.15,143.64a17.78,17.78,0,0,0,8.3-3,20,20,0,0,1,9.28-3.41,24.12,24.12,0,0,1,4.08-.2,22.83,22.83,0,0,0-30.39,5.82A17.58,17.58,0,0,0,261.15,143.64Z"/><path class="cls-1" d="M263.36,151.35a14.92,14.92,0,0,0,7.92-1.09,18.71,18.71,0,0,1,17.58,2,15.3,15.3,0,0,0,4.69,2.28,22.8,22.8,0,0,0-6.71-14.34,17.17,17.17,0,0,0-7.8-.57,17.79,17.79,0,0,0-8.3,3.06,20,20,0,0,1-9.28,3.41,25.69,25.69,0,0,1-3.2.22,20.61,20.61,0,0,1-6.64-1.17l-.6-.19c-.19.33-.38.67-.56,1a17.71,17.71,0,0,1,5.41,2.6A14.81,14.81,0,0,0,263.36,151.35Z"/><path class="cls-1" d="M261.15,163.85a17.88,17.88,0,0,0,8.3-3.06,22.22,22.22,0,0,1,19.11-2.46,19,19,0,0,0,4.88,1,22.19,22.19,0,0,0,.18-2.33,17,17,0,0,1-6.09-2.77,16.37,16.37,0,0,0-15.41-1.72,18.71,18.71,0,0,1-17.58-2,15.17,15.17,0,0,0-5.09-2.38,22.81,22.81,0,0,0-1.53,8.21,23.13,23.13,0,0,0,.7,5.62,26.3,26.3,0,0,1,3.73.95A17.8,17.8,0,0,0,261.15,163.85Z"/><path class="cls-1" d="M271.61,172.37a18.77,18.77,0,0,1-17.58-2,21.53,21.53,0,0,0-2.3-1.38A22.83,22.83,0,0,0,286,173.44a14.22,14.22,0,0,0-6.48-2.16A14.8,14.8,0,0,0,271.61,172.37Z"/><path class="cls-1" d="M287.84,160.66a19.83,19.83,0,0,0-17.1,2.19,20,20,0,0,1-9.28,3.41,25.69,25.69,0,0,1-3.2.22,20.34,20.34,0,0,1-6.64-1.17c-.7-.22-1.4-.44-2.14-.62.13.36.28.71.44,1.06a17.91,17.91,0,0,1,5.44,2.61,16.28,16.28,0,0,0,15.4,1.72,17.08,17.08,0,0,1,9-1.22,16.47,16.47,0,0,1,8,2.82,22.79,22.79,0,0,0,5.21-9.9A22,22,0,0,1,287.84,160.66Z"/><path class="cls-1" d="M204.64,172V150.17h2.53v7.55a10.63,10.63,0,0,1,2.61-1.31,8.36,8.36,0,0,1,2.56-.41,4.58,4.58,0,0,1,4,2.05,10.33,10.33,0,0,1,1.4,5.86A13.76,13.76,0,0,1,217,169a5.38,5.38,0,0,1-2.45,2.82,8.84,8.84,0,0,1-4.23.9,20.22,20.22,0,0,1-2.61-.18C206.76,172.41,205.75,172.23,204.64,172Zm2.53-1.53c.64.12,1.21.22,1.71.29a10.16,10.16,0,0,0,1.41.1,5.14,5.14,0,0,0,2.75-.66,3.92,3.92,0,0,0,1.6-2.13,12.23,12.23,0,0,0,.52-4,10.92,10.92,0,0,0-.42-3.29,4.08,4.08,0,0,0-1.26-2,3.11,3.11,0,0,0-2-.67,6.3,6.3,0,0,0-1.39.15,6.73,6.73,0,0,0-1.36.48,13.46,13.46,0,0,0-1.55.87Z"/><path class="cls-1" d="M223.25,178.67l2-6.26h-.48l-6.19-16.08,2.74-.15,4.95,13.95,4.33-13.95,2.56.15-7.4,22.49Z"/></g></g></svg>