<svg xmlns="http://www.w3.org/2000/svg" viewBox="0 0 508.68 109.17"><defs><style>.cls-1{isolation:isolate;}.cls-2,.cls-3{fill:#fff;}.cls-3{mix-blend-mode:multiply;}</style></defs><g class="cls-1"><g id="Capa_2" data-name="Capa 2"><g id="Capa_1-2" data-name="Capa 1"><path class="cls-2" d="M17.58,77.28a11,11,0,0,1,4.25-.86A11,11,0,0,0,17.58,77.28Z"/><path class="cls-2" d="M25.08,97.76a10.93,10.93,0,0,0,7.67-10.43A10.93,10.93,0,0,1,25.08,97.76Z"/><path class="cls-2" d="M38.21,69A21.7,21.7,0,0,1,32.75,54.6,10.92,10.92,0,0,1,21.83,65.5,21.73,21.73,0,0,1,36.27,71,25.36,25.36,0,0,0,38.21,69Z"/><path class="cls-2" d="M101.77,71a21.78,21.78,0,0,1-14.44,5.46h0A10.92,10.92,0,1,1,76.42,87.33,21.79,21.79,0,0,0,69,71a22,22,0,0,1-4.73,3.18l-.07,0-.71.33-.22.1-.64.26-.32.13-.6.21-.38.13-.57.18-.44.12-.54.15-.49.11L58.8,76l-.54.09-.49.08-.59.08-.46,0-.69,0-.37,0q-.54,0-1.08,0A21.77,21.77,0,0,1,40.15,71a19.74,19.74,0,0,0-1.94,1.94,21.72,21.72,0,0,1,5.46,14.43h0a10.92,10.92,0,0,1,21.83,0A21.84,21.84,0,1,0,101.77,71Z"/><path class="cls-2" d="M21.83,32.75A10.92,10.92,0,1,0,10.92,21.83,10.92,10.92,0,0,0,21.83,32.75Z"/><polygon class="cls-2" points="69.03 70.94 69.03 70.94 69.02 70.95 69.03 70.94"/><path class="cls-2" d="M56.72,65.29l.18,0Z"/><polygon class="cls-2" points="63.57 60.77 63.56 60.78 63.57 60.77 63.57 60.77"/><path class="cls-2" d="M62.44,62.15c-.1.11-.21.21-.31.31C62.23,62.36,62.34,62.26,62.44,62.15Z"/><path class="cls-2" d="M55.58,65.45l.21,0Z"/><path class="cls-2" d="M60.53,63.73l.25-.16Z"/><path class="cls-2" d="M58.72,64.68l.23-.1Z"/><path class="cls-2" d="M61.42,63.09l.26-.22Z"/><path class="cls-2" d="M57.72,65l.15-.05Z"/><path class="cls-2" d="M62.87,61.68l.25-.3Z"/><path class="cls-2" d="M59.74,64.2l.18-.1Z"/><path class="cls-2" d="M63.51,74.51l-.22.1Z"/><path class="cls-2" d="M62.65,74.87l-.32.13Z"/><path class="cls-2" d="M64.29,74.14l-.07,0Z"/><path class="cls-2" d="M56.72,76.31l-.69,0Z"/><path class="cls-2" d="M55.66,76.39q-.54,0-1.08,0Q55.12,76.42,55.66,76.39Z"/><path class="cls-2" d="M60.78,75.52l-.44.12Z"/><path class="cls-2" d="M59.8,75.79l-.49.11Z"/><path class="cls-2" d="M61.73,75.21l-.38.13Z"/><path class="cls-2" d="M57.77,76.18l-.59.08Z"/><path class="cls-2" d="M58.8,76l-.54.09Z"/><path class="cls-2" d="M59,64.58a7.18,7.18,0,0,0,.79-.38A7.18,7.18,0,0,1,59,64.58Z"/><path class="cls-2" d="M55.79,65.43c.31,0,.62-.08.93-.14C56.41,65.35,56.1,65.39,55.79,65.43Z"/><path class="cls-2" d="M56.9,65.25c.28-.06.55-.13.82-.21C57.45,65.12,57.18,65.19,56.9,65.25Z"/><path class="cls-2" d="M57.87,65a8.64,8.64,0,0,0,.85-.31A8.64,8.64,0,0,1,57.87,65Z"/><path class="cls-2" d="M54.58,65.5c.34,0,.67,0,1,0C55.25,65.48,54.92,65.5,54.58,65.5Z"/><path class="cls-2" d="M59.92,64.1l.61-.37Z"/><polygon class="cls-2" points="69.02 70.96 69.02 70.96 69.02 70.95 69.02 70.96"/><path class="cls-2" d="M63.12,61.38c.15-.19.3-.39.44-.6C63.42,61,63.27,61.19,63.12,61.38Z"/><path class="cls-2" d="M62.44,62.15l.43-.47Z"/><path class="cls-2" d="M60.78,63.57l.64-.48Z"/><path class="cls-2" d="M61.68,62.87l.45-.41Z"/><path class="cls-2" d="M63.29,74.61l-.64.26Z"/><path class="cls-2" d="M64.22,74.18l-.71.33Z"/><path class="cls-2" d="M58.26,76.1l-.49.08Z"/><path class="cls-2" d="M59.31,75.9,58.8,76Z"/><path class="cls-2" d="M61.35,75.34l-.57.18Z"/><path class="cls-2" d="M62.33,75l-.6.21Z"/><path class="cls-2" d="M60.34,75.64l-.54.15Z"/><path class="cls-2" d="M64.29,74.14A22,22,0,0,0,69,71h0A22.27,22.27,0,0,1,64.29,74.14Z"/><path class="cls-2" d="M57.18,76.26l-.46,0Z"/><path class="cls-2" d="M56,76.36l-.37,0Z"/><path class="cls-3" d="M21.83,109.17A21.84,21.84,0,0,0,43.67,87.33h0A21.84,21.84,0,0,1,21.83,109.17Z"/><path class="cls-2" d="M36.27,71a21.78,21.78,0,0,1-14.44,5.46A10.92,10.92,0,0,1,32.75,87.33,21.72,21.72,0,0,1,38.21,72.9,20.9,20.9,0,0,0,36.27,71Z"/><path class="cls-3" d="M10.92,87.33a10.91,10.91,0,0,1,6.66-10,10.92,10.92,0,0,0,7.5,20.48A10.92,10.92,0,0,1,10.92,87.33Z"/><path class="cls-2" d="M32.75,87.33A10.92,10.92,0,1,1,21.83,76.42,21.78,21.78,0,0,0,36.27,71a21.83,21.83,0,1,0,7.4,16.37h0A21.72,21.72,0,0,0,38.21,72.9,21.72,21.72,0,0,0,32.75,87.33Z"/><path class="cls-2" d="M32.75,87.33A10.92,10.92,0,1,1,21.83,76.42,21.78,21.78,0,0,0,36.27,71a21.83,21.83,0,1,0,7.4,16.37h0A21.72,21.72,0,0,0,38.21,72.9,21.72,21.72,0,0,0,32.75,87.33Z"/><path class="cls-2" d="M98.25,21.83A10.92,10.92,0,0,1,87.33,32.75a21.73,21.73,0,0,1,14.44,5.46,21.78,21.78,0,0,0,7.39-16.38Z"/><path class="cls-2" d="M65.5,21.83A10.92,10.92,0,0,1,54.58,32.75,21.68,21.68,0,0,1,69,38.21a21.76,21.76,0,0,0,7.4-16.38h0A10.91,10.91,0,0,1,87.33,10.92V0A21.83,21.83,0,0,0,65.5,21.83Z"/><path class="cls-2" d="M87.33,0l-.09.07V10.78l.09.14h0A10.92,10.92,0,0,1,98.25,21.83h10.91A21.83,21.83,0,0,0,87.33,0Z"/><path class="cls-2" d="M101.77,38.21A21.83,21.83,0,0,0,65.5,54.58a10.85,10.85,0,0,1-1.93,6.19h0a6.7,6.7,0,0,1-.45.6c-.07.1-.16.2-.24.3l-.43.47c-.1.11-.21.21-.31.31l-.45.41-.26.22c-.21.16-.42.33-.64.48l-.25.16-.61.37-.18.1a8,8,0,0,1-.78.38l-.25.1a7.63,7.63,0,0,1-.84.31l-.15.05c-.27.08-.54.15-.82.21l-.18,0c-.31.06-.62.11-.94.14l-.2,0c-.33,0-.66,0-1,0a10.92,10.92,0,1,1,9-17.11A24.52,24.52,0,0,1,69,38.21,21.82,21.82,0,0,0,32.75,54.58v0A21.7,21.7,0,0,0,38.21,69,20.9,20.9,0,0,0,40.15,71a21.77,21.77,0,0,0,14.43,5.46q.54,0,1.08,0l.37,0,.69-.06.45,0,.6-.08.49-.08c.18,0,.36-.06.54-.09l.51-.11.49-.11.54-.14.44-.13.57-.18.38-.12.6-.22.32-.13.63-.26.23-.1.71-.33.07,0A22.27,22.27,0,0,0,69,71h0A22,22,0,0,0,71,69a21.75,21.75,0,0,0,16.37,7.4h0a21.83,21.83,0,0,0,14.44-38.21ZM87.33,65.5A10.92,10.92,0,1,1,98.25,54.58,10.92,10.92,0,0,1,87.33,65.5Z"/><path class="cls-2" d="M223.18,72c-5.67,0-10.11-1.3-13.8-4.85l3.28-3.28c2.67,2.8,6.29,3.89,10.46,3.89,5.53,0,8.94-2,8.94-5.94,0-2.94-1.7-4.58-5.6-4.92l-5.53-.48c-6.56-.55-10-3.48-10-9,0-6.15,5.19-9.83,12.36-9.83,4.78,0,9.09,1.16,12.09,3.62l-3.21,3.21a14.3,14.3,0,0,0-8.95-2.67c-4.91,0-7.51,2.12-7.51,5.54,0,2.87,1.64,4.57,5.87,4.91l5.4.48c5.88.55,9.91,2.8,9.91,9.09C236.85,68.25,231.31,72,223.18,72Z"/><path class="cls-2" d="M248.94,28.69a3.35,3.35,0,1,1,0-6.69,3.35,3.35,0,1,1,0,6.69ZM246.48,71.6V38h4.92V71.6Z"/><path class="cls-2" d="M363.63,71.6c-5.88,0-8.54-3.83-8.54-8.95V23H360V62.44c0,3.28,1.09,4.92,4.51,4.92h2.66V71.6Z"/><path class="cls-2" d="M384.05,71.6h-4.37L367.38,38h5.33l9.16,27,9.22-27h5.33Z"/><path class="cls-2" d="M441.29,28.69a3.35,3.35,0,0,1,0-6.69,3.35,3.35,0,1,1,0,6.69ZM438.83,71.6V38h4.92V71.6Z"/><path class="cls-2" d="M474.9,44.41A7,7,0,0,0,469.1,42c-4.92,0-8.07,3.89-8.07,9V71.6h-4.91V38H461v4.09c1.85-2.8,5.54-4.5,9.43-4.5a10.35,10.35,0,0,1,8.06,3.14Z"/><path class="cls-2" d="M503.25,71.6V68.39c-2.73,2.73-5.19,3.62-9.7,3.62s-7.38-.89-9.5-3.08a9.71,9.71,0,0,1-2.52-6.83c0-5.88,4.1-9.7,11.61-9.7h10.11V49.19c0-4.92-2.46-7.38-8.61-7.38-4.3,0-6.49,1-8.47,3.83l-3.35-3.08c3-3.89,6.42-5,11.89-5,9,0,13.46,3.89,13.46,11.2V71.6Zm0-15.51h-9.43c-5.05,0-7.51,2-7.51,5.94s2.39,5.74,7.72,5.74c2.87,0,5.4-.2,7.51-2.25,1.16-1.1,1.71-3,1.71-5.81Z"/><path class="cls-2" d="M156.43,72a16.34,16.34,0,0,1-6.73-1.38A17.13,17.13,0,0,1,139.52,54.9v-.13a17.49,17.49,0,0,1,4.82-12.13,16.81,16.81,0,0,1,5.36-3.73,16.49,16.49,0,0,1,6.73-1.37,18.75,18.75,0,0,1,4.28.45,15.64,15.64,0,0,1,3.51,1.24,16.53,16.53,0,0,1,2.94,1.88,26,26,0,0,1,2.48,2.3l-3.25,3.45a23.49,23.49,0,0,0-4.31-3.51,10.49,10.49,0,0,0-5.71-1.47,11.07,11.07,0,0,0-4.66,1,11.71,11.71,0,0,0-3.77,2.71,12.64,12.64,0,0,0-2.49,4.05,14,14,0,0,0-.89,5v.13a13.36,13.36,0,0,0,.93,5A12.73,12.73,0,0,0,148,63.87a11.59,11.59,0,0,0,8.65,3.73,11.25,11.25,0,0,0,5.65-1.4,19.36,19.36,0,0,0,4.43-3.51l3.13,2.93a21.75,21.75,0,0,1-5.65,4.6A15.68,15.68,0,0,1,156.43,72Z"/><path class="cls-2" d="M178.35,56.75a13.18,13.18,0,0,0,1.28,4.66A11.14,11.14,0,0,0,185.82,67a11.82,11.82,0,0,0,4.15.74,12.51,12.51,0,0,0,5.9-1.28,17.48,17.48,0,0,0,4.5-3.38l3.07,2.74a20,20,0,0,1-5.68,4.5,16.75,16.75,0,0,1-7.92,1.7,16.49,16.49,0,0,1-6.38-1.25,15.78,15.78,0,0,1-5.24-3.51,16.61,16.61,0,0,1-3.54-5.46,18.36,18.36,0,0,1-1.31-7A19,19,0,0,1,174.56,48a16.78,16.78,0,0,1,3.28-5.49,15.36,15.36,0,0,1,5-3.67,15.93,15.93,0,0,1,12.86,0,14.23,14.23,0,0,1,4.85,3.73,16.29,16.29,0,0,1,3,5.56,22,22,0,0,1,1,6.83v.73c0,.28,0,.61-.07,1Zm21.26-4a15.54,15.54,0,0,0-1-4.22A11.85,11.85,0,0,0,196.58,45a9.46,9.46,0,0,0-3.2-2.41,9.84,9.84,0,0,0-4.3-.89,9.59,9.59,0,0,0-4,.82,10,10,0,0,0-3.26,2.32,13.07,13.07,0,0,0-2.33,3.52,14.31,14.31,0,0,0-1.18,4.38Z"/><path class="cls-2" d="M404.62,56.75a13.18,13.18,0,0,0,1.28,4.66A11.14,11.14,0,0,0,412.09,67a11.82,11.82,0,0,0,4.15.74,12.51,12.51,0,0,0,5.9-1.28,17.48,17.48,0,0,0,4.5-3.38l3.07,2.74a20,20,0,0,1-5.68,4.5,16.75,16.75,0,0,1-7.92,1.7,16.49,16.49,0,0,1-6.38-1.25,15.88,15.88,0,0,1-5.24-3.51A16.94,16.94,0,0,1,401,61.79a18.36,18.36,0,0,1-1.3-7A19,19,0,0,1,400.83,48a16.78,16.78,0,0,1,3.28-5.49,15.47,15.47,0,0,1,5-3.67,15.93,15.93,0,0,1,12.86,0,14.37,14.37,0,0,1,4.86,3.73,16.63,16.63,0,0,1,3,5.56,22.3,22.3,0,0,1,1,6.83v.73a7.63,7.63,0,0,1-.07,1Zm21.26-4a15.54,15.54,0,0,0-1-4.22A11.85,11.85,0,0,0,422.85,45a9.52,9.52,0,0,0-3.19-2.41,9.92,9.92,0,0,0-4.31-.89,9.59,9.59,0,0,0-4,.82,9.83,9.83,0,0,0-3.25,2.32,12.87,12.87,0,0,0-2.34,3.52,14.31,14.31,0,0,0-1.18,4.38Z"/><path class="cls-2" d="M275.11,72a16.74,16.74,0,0,1-6.83-1.38,17.27,17.27,0,0,1-5.42-3.7,16.57,16.57,0,0,1-3.58-5.42A17.22,17.22,0,0,1,258,54.9v-.13a17.45,17.45,0,0,1,1.28-6.64,16.86,16.86,0,0,1,9-9.22,17.32,17.32,0,0,1,6.93-1.37,17.12,17.12,0,0,1,6.86,1.37,17.39,17.39,0,0,1,5.46,3.7A16.75,16.75,0,0,1,291.13,48a17.13,17.13,0,0,1,1.28,6.6v.13a17.35,17.35,0,0,1-4.92,12.13A16.79,16.79,0,0,1,282,70.63,17.13,17.13,0,0,1,275.11,72Zm.13-4.41a11.66,11.66,0,0,0,4.91-1A12,12,0,0,0,284,63.84a12.31,12.31,0,0,0,2.49-4,13.34,13.34,0,0,0,.9-4.91v-.13a13.44,13.44,0,0,0-.93-5,12.87,12.87,0,0,0-2.58-4.08A12.46,12.46,0,0,0,280,42.9a11.83,11.83,0,0,0-13.56,2.74,12.86,12.86,0,0,0-2.46,4.06,13.57,13.57,0,0,0-.89,4.94v.13a13.36,13.36,0,0,0,.92,5,12.57,12.57,0,0,0,2.56,4.06,12.31,12.31,0,0,0,3.86,2.74A11.52,11.52,0,0,0,275.24,67.6Z"/><path class="cls-2" d="M332.11,72a16.71,16.71,0,0,1-6.83-1.38,17.27,17.27,0,0,1-5.42-3.7,16.57,16.57,0,0,1-3.58-5.42A17.21,17.21,0,0,1,315,54.9v-.13a17.44,17.44,0,0,1,1.27-6.64,16.86,16.86,0,0,1,9-9.22,17.47,17.47,0,0,1,19.25,3.7A16.75,16.75,0,0,1,348.13,48a17.13,17.13,0,0,1,1.28,6.6v.13a17.06,17.06,0,0,1-1.31,6.64,17.35,17.35,0,0,1-3.61,5.49A16.79,16.79,0,0,1,339,70.63,17.13,17.13,0,0,1,332.11,72Zm.13-4.41a11.66,11.66,0,0,0,4.91-1A12,12,0,0,0,341,63.84a12.31,12.31,0,0,0,2.49-4,13.34,13.34,0,0,0,.9-4.91v-.13a13.44,13.44,0,0,0-.93-5,12.87,12.87,0,0,0-2.58-4.08A12.46,12.46,0,0,0,337,42.9a11.83,11.83,0,0,0-13.56,2.74,12.68,12.68,0,0,0-2.46,4.06,13.57,13.57,0,0,0-.89,4.94v.13a13.56,13.56,0,0,0,.92,5,12.57,12.57,0,0,0,2.56,4.06,12.31,12.31,0,0,0,3.86,2.74A11.52,11.52,0,0,0,332.24,67.6Z"/><path class="cls-2" d="M301.06,97.7V10.92h2.21V97.7Z"/><path class="cls-2" d="M326.65,81.58h.87l5.67,12.26h-1l-1.55-3.41h-7.18l-1.54,3.41H321Zm3.62,8-3.2-7-3.22,7Z"/><path class="cls-2" d="M341.53,81.67h5.11a5.77,5.77,0,0,1,2,.32,3.9,3.9,0,0,1,1.43.88,3.09,3.09,0,0,1,.68,1,3.19,3.19,0,0,1,.24,1.24v0a3.32,3.32,0,0,1-.27,1.37,3,3,0,0,1-.74,1,3.94,3.94,0,0,1-1.13.71,5.8,5.8,0,0,1-1.42.37l4,5.2h-1.14l-3.88-5h-4v5h-.9Zm5,6.31a5.36,5.36,0,0,0,1.42-.19,3.35,3.35,0,0,0,1.12-.55,2.69,2.69,0,0,0,.74-.87,2.53,2.53,0,0,0,.27-1.18v0a2.35,2.35,0,0,0-.91-2,4.08,4.08,0,0,0-2.58-.71h-4.16V88Z"/><path class="cls-2" d="M369.35,92.65a5.86,5.86,0,0,1-1.76,1,6.29,6.29,0,0,1-2.17.36,6,6,0,0,1-2.51-.51,5.95,5.95,0,0,1-3.15-3.36,6.56,6.56,0,0,1-.43-2.38v0a6.45,6.45,0,0,1,.44-2.39,6.13,6.13,0,0,1,1.24-2,6.05,6.05,0,0,1,10.11,2,6.33,6.33,0,0,1,.44,2.38,0,0,0,0,1,0,0,6.66,6.66,0,0,1-.41,2.32A5.91,5.91,0,0,1,370,92l1.74,1.47-.65.69Zm-3.89.58a5,5,0,0,0,3.23-1.15l-2.36-2,.64-.71,2.33,2.12a5.34,5.34,0,0,0,1-1.67,5.9,5.9,0,0,0,.35-2v0a5.84,5.84,0,0,0-.39-2.13,5.39,5.39,0,0,0-1.08-1.73,5,5,0,0,0-3.73-1.61,5,5,0,0,0-2.07.42,5.22,5.22,0,0,0-1.64,1.17,5.54,5.54,0,0,0-1.07,1.73,5.91,5.91,0,0,0-.38,2.12v0a5.76,5.76,0,0,0,.39,2.13,5.5,5.5,0,0,0,1.08,1.74,5.22,5.22,0,0,0,1.64,1.17A5,5,0,0,0,365.46,93.23Z"/><path class="cls-2" d="M385.2,94a5.89,5.89,0,0,1-2-.34,4.45,4.45,0,0,1-1.58-1,4.58,4.58,0,0,1-1-1.64,6.49,6.49,0,0,1-.37-2.26V81.67h.91v7A4.79,4.79,0,0,0,382.2,92a4,4,0,0,0,3,1.17,4.59,4.59,0,0,0,1.66-.28,3.26,3.26,0,0,0,1.28-.83,3.69,3.69,0,0,0,.82-1.39,6,6,0,0,0,.29-1.93V81.67h.9v7a6.59,6.59,0,0,1-.37,2.31,4.61,4.61,0,0,1-1,1.67,4.25,4.25,0,0,1-1.57,1A5.73,5.73,0,0,1,385.2,94Z"/><path class="cls-2" d="M399.51,81.67h.9V93.84h-.9Z"/><path class="cls-2" d="M413.29,82.49h-4.24v-.82h9.38v.82h-4.24V93.84h-.9Z"/><path class="cls-2" d="M427,81.67h8.65v.82h-7.75V87.3h7v.82h-7V93h7.84v.82H427Z"/><path class="cls-2" d="M449.87,94a5.9,5.9,0,0,1-5.6-3.8,6.66,6.66,0,0,1-.45-2.45v0a6.4,6.4,0,0,1,.46-2.43,6.54,6.54,0,0,1,1.27-2,5.93,5.93,0,0,1,4.36-1.85,7.34,7.34,0,0,1,1.47.14,5.91,5.91,0,0,1,1.23.4,6.25,6.25,0,0,1,1.06.62,8.74,8.74,0,0,1,1,.79l-.64.66a9.29,9.29,0,0,0-.84-.71,5.52,5.52,0,0,0-.93-.57,5.19,5.19,0,0,0-1.07-.37,5.1,5.1,0,0,0-1.27-.14,5,5,0,0,0-2,.42,4.79,4.79,0,0,0-1.62,1.15,5.39,5.39,0,0,0-1.08,1.73,5.77,5.77,0,0,0-.39,2.14v0a5.67,5.67,0,0,0,.4,2.15,5.46,5.46,0,0,0,1.09,1.74,4.85,4.85,0,0,0,1.62,1.16,4.78,4.78,0,0,0,2,.43,5,5,0,0,0,2.29-.49,7,7,0,0,0,1.89-1.41l.61.59a9.92,9.92,0,0,1-1,.86,6.14,6.14,0,0,1-1.09.67,6.25,6.25,0,0,1-1.26.44A6.94,6.94,0,0,1,449.87,94Z"/><path class="cls-2" d="M466.33,82.49h-4.24v-.82h9.38v.82h-4.24V93.84h-.9Z"/><path class="cls-2" d="M485.55,94a5.91,5.91,0,0,1-4.43-1.88,6,6,0,0,1-1.24-2,6.56,6.56,0,0,1-.43-2.38v0a6.66,6.66,0,0,1,.44-2.39,6.3,6.3,0,0,1,1.24-2A6.15,6.15,0,0,1,483.06,82a6,6,0,0,1,8.19,3.37,6.53,6.53,0,0,1,.43,2.38s0,0,0,0a6.62,6.62,0,0,1-.44,2.39,6.46,6.46,0,0,1-1.24,2,5.8,5.8,0,0,1-1.94,1.38A6.09,6.09,0,0,1,485.55,94Zm0-.81a5,5,0,0,0,3.71-1.59,5.3,5.3,0,0,0,1.07-1.73,5.74,5.74,0,0,0,.38-2.12v0a5.84,5.84,0,0,0-.39-2.13,5.54,5.54,0,0,0-1.07-1.73,5,5,0,0,0-1.65-1.18,4.93,4.93,0,0,0-2.08-.43,5.05,5.05,0,0,0-2.08.42,5.18,5.18,0,0,0-1.63,1.17,5.36,5.36,0,0,0-1.07,1.73,5.7,5.7,0,0,0-.38,2.12v0a5.76,5.76,0,0,0,.39,2.13,5.48,5.48,0,0,0,1.07,1.74,5.15,5.15,0,0,0,1.65,1.17A4.94,4.94,0,0,0,485.58,93.23Z"/><path class="cls-2" d="M504.65,94a6.75,6.75,0,0,1-2.64-.49,8,8,0,0,1-2.26-1.46l.59-.67a7.78,7.78,0,0,0,1,.8,5.33,5.33,0,0,0,1,.56,6.66,6.66,0,0,0,1.1.33,6.92,6.92,0,0,0,1.25.11A4.15,4.15,0,0,0,506,93a3,3,0,0,0,1-.5,2.33,2.33,0,0,0,.63-.77,2.09,2.09,0,0,0,.23-1v0a2.41,2.41,0,0,0-.15-.87,1.72,1.72,0,0,0-.54-.69,3.92,3.92,0,0,0-1-.57,11.92,11.92,0,0,0-1.71-.46,10.92,10.92,0,0,1-1.87-.53,4.66,4.66,0,0,1-1.28-.71,2.43,2.43,0,0,1-.72-1,3.17,3.17,0,0,1-.23-1.23v0a2.72,2.72,0,0,1,.3-1.26,3.15,3.15,0,0,1,.82-1,3.66,3.66,0,0,1,1.23-.68,4.86,4.86,0,0,1,1.56-.24,6.55,6.55,0,0,1,2.29.36A6.93,6.93,0,0,1,508.31,83l-.57.72a5.29,5.29,0,0,0-3.63-1.38,3.69,3.69,0,0,0-1.23.19,3.11,3.11,0,0,0-.94.49,2.16,2.16,0,0,0-.59.73,1.94,1.94,0,0,0-.21.89v0a2.66,2.66,0,0,0,.14.88,1.71,1.71,0,0,0,.54.71,3.67,3.67,0,0,0,1.09.58,11.35,11.35,0,0,0,1.77.49,7,7,0,0,1,3.06,1.23,2.61,2.61,0,0,1,.94,2.13v0a2.91,2.91,0,0,1-.31,1.35,3.14,3.14,0,0,1-.83,1,4.05,4.05,0,0,1-1.27.68A5.2,5.2,0,0,1,504.65,94Z"/></g></g></g></svg>